<?xml version="1.0" encoding="UTF-8" standalone="no"?>
<!-- Created with Inkscape (http://www.inkscape.org/) -->

<svg
   xmlns:dc="http://purl.org/dc/elements/1.1/"
   xmlns:cc="http://creativecommons.org/ns#"
   xmlns:rdf="http://www.w3.org/1999/02/22-rdf-syntax-ns#"
   xmlns:svg="http://www.w3.org/2000/svg"
   xmlns="http://www.w3.org/2000/svg"
   xmlns:sodipodi="http://sodipodi.sourceforge.net/DTD/sodipodi-0.dtd"
   xmlns:inkscape="http://www.inkscape.org/namespaces/inkscape"
   width="210mm"
   height="297mm"
   viewBox="0 0 210 297"
   version="1.1"
   id="svg8"
   inkscape:version="0.92.4 (5da689c313, 2019-01-14)"
   sodipodi:docname="BLM 1-61.svg">
  <defs
     id="defs2" />
  <sodipodi:namedview
     id="base"
     pagecolor="#ffffff"
     bordercolor="#666666"
     borderopacity="1.0"
     inkscape:pageopacity="0.0"
     inkscape:pageshadow="2"
     inkscape:zoom="1.85"
     inkscape:cx="300.65465"
     inkscape:cy="654.56459"
     inkscape:document-units="mm"
     inkscape:current-layer="layer1"
     showgrid="false"
     inkscape:snap-global="false"
     inkscape:snap-object-midpoints="true"
     showguides="true"
     inkscape:guide-bbox="true"
     inkscape:window-width="1280"
     inkscape:window-height="687"
     inkscape:window-x="0"
     inkscape:window-y="1"
     inkscape:window-maximized="1" />
  <metadata
     id="metadata5">
    <rdf:RDF>
      <cc:Work
         rdf:about="">
        <dc:format>image/svg+xml</dc:format>
        <dc:type
           rdf:resource="http://purl.org/dc/dcmitype/StillImage" />
        <dc:title></dc:title>
      </cc:Work>
    </rdf:RDF>
  </metadata>
  <g
     inkscape:label="Layer 1"
     inkscape:groupmode="layer"
     id="layer1">
    <g
       aria-label="BLACK
LIVES
MATTER"
       style="font-style:normal;font-variant:normal;font-weight:normal;font-stretch:normal;font-size:10.58333302px;line-height:10.15999985px;font-family:Stencilia-A;-inkscape-font-specification:Stencilia-A;text-align:center;letter-spacing:0px;word-spacing:0px;text-anchor:middle;fill:#000000;fill-opacity:1;stroke:#000000;stroke-width:0.26458332;stroke-opacity:1"
       id="text1454"
       transform="matrix(0.68159279,0,0,0.68159279,52.179709,44.849768)">
      <path
         d="m 31.851685,91.468645 c 0,-0.4445 -0.105833,-0.807861 -0.3175,-1.090084 -0.211667,-0.289277 -0.515055,-0.525638 -0.910166,-0.709083 0.331611,-0.1905 0.585611,-0.398639 0.762,-0.624417 0.176389,-0.232833 0.264583,-0.550333 0.264583,-0.952499 0,-0.437445 -0.09878,-0.779639 -0.296333,-1.026584 -0.197556,-0.254 -0.451556,-0.440972 -0.762,-0.560916 -0.310445,-0.127 -0.649111,-0.204611 -1.016,-0.232834 -0.366889,-0.03528 -0.719666,-0.05292 -1.058333,-0.05292 h -0.116417 c -0.01411,0 -0.02117,0.0035 -0.02117,0.01058 h -0.02117 0.06885 l 0.01058,1.397 h -0.02652 c 0.02117,-0.0071 0.03528,-0.01058 0.04233,-0.01058 0.01411,-0.0071 0.03175,-0.01058 0.05292,-0.01058 0.02117,-0.0071 0.07056,-0.01058 0.148167,-0.01058 0.141111,0 0.289278,0.0071 0.4445,0.02117 0.162278,0.01411 0.310445,0.04939 0.4445,0.105833 0.141111,0.05645 0.254,0.137586 0.338667,0.243417 0.09172,0.105833 0.137583,0.246944 0.137583,0.423333 0,0.169333 -0.04586,0.303389 -0.137583,0.402166 -0.09172,0.09878 -0.208139,0.176389 -0.34925,0.232834 -0.134056,0.04939 -0.278695,0.08114 -0.433917,0.09525 -0.155222,0.0071 -0.296333,0.01058 -0.423333,0.01058 h -0.15875 c -0.02117,-0.0071 -0.03881,-0.01411 -0.05292,-0.02117 -0.0071,-0.0071 -0.02469,-0.01058 -0.05292,-0.01058 -0.02117,-0.0071 0.104123,-0.01058 0.02652,-0.01058 v 1.3335 h -0.02652 c 0.02822,-0.0071 0.04939,-0.01058 0.0635,-0.01058 0.01411,-0.0071 0.03175,-0.01058 0.05292,-0.01058 0.02822,-0.0071 0.08114,-0.01058 0.15875,-0.01058 0.162278,0 0.328084,0.01058 0.497417,0.03175 0.176389,0.01411 0.335139,0.05292 0.47625,0.116416 0.141111,0.0635 0.257527,0.15875 0.34925,0.28575 0.09172,0.119945 0.137583,0.282223 0.137583,0.486834 0,0.218722 -0.04939,0.395111 -0.148167,0.529166 -0.09878,0.127 -0.222249,0.225778 -0.370416,0.296334 -0.148167,0.07055 -0.313972,0.116416 -0.497417,0.137583 -0.183445,0.01411 -0.359834,0.02117 -0.529167,0.02117 H 28.45442 c -0.01411,-0.0071 -0.0247,-0.01058 -0.03175,-0.01058 0,-0.0071 -0.01058,-0.01058 -0.03175,-0.01058 -0.01411,-0.0071 0.118233,-0.01058 0.04768,-0.01058 v 1.386416 h 0.01582 0.09525 0.09525 0.201083 c 0.232833,0 0.469194,-0.0071 0.709083,-0.02117 0.239889,-0.01411 0.472723,-0.05292 0.6985,-0.116417 0.225778,-0.0635 0.437445,-0.151694 0.635,-0.264583 0.197555,-0.119945 0.373944,-0.278695 0.529167,-0.47625 0.141111,-0.183445 0.246944,-0.388056 0.3175,-0.613834 0.07761,-0.225777 0.116416,-0.455083 0.116416,-0.687916 z m -4.659742,2.180166 v -7.418916 h -1.393924 v 7.418916 z"
         style="font-style:normal;font-variant:normal;font-weight:normal;font-stretch:normal;line-height:10.15999985px;font-family:Stencilia-A;-inkscape-font-specification:Stencilia-A;text-align:center;text-anchor:middle;fill:#000000;fill-opacity:1;stroke:#000000;stroke-width:0.26458332;stroke-opacity:1"
         id="path1493"
         inkscape:connector-curvature="0"
         sodipodi:nodetypes="ccccscccsscccccccscccssccsccccccccscccscccsccccccccssccccccccccc" />
      <path
         d="m 34.476084,93.648811 v -7.418916 h -1.404507 v 7.418916 z m 3.781326,0 v -1.386416 h -2.719917 v 1.386416 z"
         style="font-style:normal;font-variant:normal;font-weight:normal;font-stretch:normal;line-height:10.15999985px;font-family:Stencilia-A;-inkscape-font-specification:Stencilia-A;text-align:center;text-anchor:middle;fill:#000000;fill-opacity:1;stroke:#000000;stroke-width:0.26458332;stroke-opacity:1"
         id="path1495"
         inkscape:connector-curvature="0"
         sodipodi:nodetypes="cccccccccc" />
      <path
         d="m 45.763808,93.648811 -2.6035,-7.408333 h -1.905 l -2.550584,7.408333 h 1.518564 l 1.483462,-4.691932 0.511641,-1.086567 c 0,0 0.278735,0.973666 0.433955,1.439333 0.162278,0.465667 0.197517,0.934861 0.338628,1.407583 l -0.46023,0.01058 -0.402166,1.3335 h 1.499231 l 0.486833,1.5875 z"
         style="font-style:normal;font-variant:normal;font-weight:normal;font-stretch:normal;line-height:10.15999985px;font-family:Stencilia-A;-inkscape-font-specification:Stencilia-A;text-align:center;text-anchor:middle;fill:#000000;fill-opacity:1;stroke:#000000;stroke-width:0.26458332;stroke-opacity:1"
         id="path1497"
         inkscape:connector-curvature="0"
         sodipodi:nodetypes="cccccccccccccc" />
      <path
         d="m 52.999499,88.505311 c -0.162277,-0.825499 -0.479777,-1.418166 -0.9525,-1.777999 -0.472722,-0.359833 -0.901836,-0.560917 -1.692058,-0.60325 v 1.36525 c 0.352778,0.03528 0.407947,0.148169 0.570225,0.338666 0.169333,0.183445 0.299861,0.451556 0.391583,0.804333 z m 0.116417,2.677584 -1.756833,-0.116417 c -0.04939,0.409222 -0.162276,0.726722 -0.338667,0.9525 -0.176389,0.225778 -0.263308,0.359834 -0.665475,0.402167 h 0.01058 v 1.397 c 0.437445,-0.05645 0.619614,-0.137586 0.951225,-0.243417 0.331611,-0.105833 0.613834,-0.257528 0.846667,-0.455083 0.239889,-0.204611 0.437444,-0.462139 0.592667,-0.772584 0.155222,-0.310444 0.275166,-0.698499 0.359833,-1.164166 z m -3.767141,2.624666 v -1.397 c -0.3175,-0.0071 -0.452081,-0.08466 -0.656692,-0.232833 -0.204611,-0.155222 -0.366889,-0.34925 -0.486834,-0.582083 -0.112889,-0.232833 -0.1905,-0.490361 -0.232833,-0.772584 -0.04233,-0.282222 -0.0635,-0.560916 -0.0635,-0.836083 0,-0.282222 0.01411,-0.567972 0.04233,-0.85725 0.03528,-0.296333 0.109363,-0.560917 0.22225,-0.79375 0.112889,-0.239889 0.268112,-0.437444 0.465667,-0.592666 0.204611,-0.155223 0.349776,-0.239889 0.688443,-0.254 l 0.01058,-0.01058 v -1.36525 c -0.557389,0.01411 -0.921276,0.119947 -1.344609,0.3175 -0.416278,0.197556 -0.765528,0.465667 -1.04775,0.804334 -0.275167,0.338667 -0.483306,0.740833 -0.624417,1.206499 -0.141111,0.458611 -0.211667,0.959556 -0.211667,1.502834 0,0.536222 0.07056,1.037166 0.211667,1.502833 0.148167,0.465667 0.363361,0.871361 0.645583,1.217083 0.282223,0.345723 0.631473,0.620889 1.04775,0.8255 0.423333,0.204611 0.783693,0.310445 1.334026,0.3175 z"
         style="font-style:normal;font-variant:normal;font-weight:normal;font-stretch:normal;line-height:10.15999985px;font-family:Stencilia-A;-inkscape-font-specification:Stencilia-A;text-align:center;text-anchor:middle;fill:#000000;fill-opacity:1;stroke:#000000;stroke-width:0.26458332;stroke-opacity:1"
         id="path1499"
         inkscape:connector-curvature="0"
         sodipodi:nodetypes="cscccccccccccccsccccccsscccccccccscsccc" />
      <path
         d="m 60.469679,93.648811 -3.01625,-4.042833 2.846917,-3.376083 h -2.148417 l -1.607392,2.518833 v 1.8415 l 1.861392,3.058583 z m -5.159486,0 v -7.408333 h -1.433931 v 7.408333 z"
         style="font-style:normal;font-variant:normal;font-weight:normal;font-stretch:normal;line-height:10.15999985px;font-family:Stencilia-A;-inkscape-font-specification:Stencilia-A;text-align:center;text-anchor:middle;fill:#000000;fill-opacity:1;stroke:#000000;stroke-width:0.26458332;stroke-opacity:1"
         id="path1501"
         inkscape:connector-curvature="0"
         sodipodi:nodetypes="ccccccccccccc" />
      <path
         d="m 30.03381,103.80881 v -7.418915 h -1.429802 v 7.418915 z m 3.756031,0 v -1.38642 h -2.719917 v 1.38642 z"
         style="font-style:normal;font-variant:normal;font-weight:normal;font-stretch:normal;line-height:10.15999985px;font-family:Stencilia-A;-inkscape-font-specification:Stencilia-A;text-align:center;text-anchor:middle;fill:#000000;fill-opacity:1;stroke:#000000;stroke-width:0.26458332;stroke-opacity:1"
         id="path1503"
         inkscape:connector-curvature="0"
         sodipodi:nodetypes="cccccccccc" />
      <path
         d="m 36.197727,103.80881 v -7.408332 h -1.661583 v 7.408332 z"
         style="font-style:normal;font-variant:normal;font-weight:normal;font-stretch:normal;line-height:10.15999985px;font-family:Stencilia-A;-inkscape-font-specification:Stencilia-A;text-align:center;text-anchor:middle;fill:#000000;fill-opacity:1;stroke:#000000;stroke-width:0.26458332;stroke-opacity:1"
         id="path1505"
         inkscape:connector-curvature="0" />
      <path
         d="m 43.82466,96.400478 h -1.788583 l -0.938315,3.616942 0.762,2.43417 z m -2.860576,7.408332 -2.338917,-7.408332 h -1.54209 l 2.592916,7.408332 z"
         style="font-style:normal;font-variant:normal;font-weight:normal;font-stretch:normal;line-height:10.15999985px;font-family:Stencilia-A;-inkscape-font-specification:Stencilia-A;text-align:center;text-anchor:middle;fill:#000000;fill-opacity:1;stroke:#000000;stroke-width:0.26458332;stroke-opacity:1"
         id="path1507"
         inkscape:connector-curvature="0"
         sodipodi:nodetypes="cccccccccc" />
      <path
         d="m 50.26132,97.765728 v -1.375833 h -2.931583 v 1.375833 z m -0.275166,2.804582 v -1.333498 h -2.656417 v 1.333498 z m 0.34925,3.2385 v -1.37583 h -3.005667 v 1.37583 z m -4.098826,0 v -7.418915 h -1.372757 v 7.418915 z"
         style="font-style:normal;font-variant:normal;font-weight:normal;font-stretch:normal;line-height:10.15999985px;font-family:Stencilia-A;-inkscape-font-specification:Stencilia-A;text-align:center;text-anchor:middle;fill:#000000;fill-opacity:1;stroke:#000000;stroke-width:0.26458332;stroke-opacity:1"
         id="path1509"
         inkscape:connector-curvature="0"
         sodipodi:nodetypes="cccccccccccccccccccc" />
      <path
         d="m 57.38869,98.580645 c -0.02117,-0.09878 -0.03881,-0.201084 -0.05292,-0.306917 -0.0071,-0.105833 -0.02469,-0.208139 -0.05292,-0.306916 -0.148167,-0.557389 -0.426861,-0.973667 -0.836084,-1.248834 -0.409222,-0.275167 -0.892527,-0.430389 -1.449916,-0.465666 l -0.04699,-0.01058 v 1.354667 c 0.1905,0.02117 0.237488,0.05644 0.343321,0.105833 0.105833,0.04233 0.186972,0.105833 0.243417,0.1905 0.0635,0.08467 0.105833,0.194028 0.127,0.328084 0.02822,0.134055 0.05291,0.296333 0.07408,0.486833 z m 0.116417,3.164415 c 0,-0.40922 -0.0635,-0.75141 -0.1905,-1.02658 -0.119945,-0.27517 -0.282223,-0.50095 -0.486834,-0.67734 -0.204611,-0.183441 -0.437444,-0.324551 -0.6985,-0.423328 -0.261055,-0.105833 -0.529166,-0.1905 -0.804333,-0.254 -0.268111,-0.07056 -0.532695,-0.127001 -0.79375,-0.169334 -0.261055,-0.04939 -0.493889,-0.109359 -0.6985,-0.179916 -0.204611,-0.07056 -0.370417,-0.158751 -0.497417,-0.264584 -0.127,-0.112889 -0.1905,-0.264583 -0.1905,-0.455083 0,-0.148167 0.02469,-0.268111 0.07408,-0.359833 0.04939,-0.09878 0.116414,-0.172861 0.201083,-0.22225 0.08467,-0.05645 0.179917,-0.09172 0.28575,-0.105834 0.105833,-0.02117 0.117543,-0.03175 0.237488,-0.03175 v -1.3335 h -0.0635 c -0.359833,0 -0.593793,0.04233 -0.904238,0.127 -0.310445,0.07761 -0.578556,0.204611 -0.804333,0.381 -0.225778,0.176389 -0.402167,0.409223 -0.529167,0.6985 -0.127,0.282223 -0.1905,0.627945 -0.1905,1.037167 0,0.366889 0.05997,0.673805 0.179917,0.92075 0.127,0.239889 0.292805,0.44097 0.497416,0.603245 0.204611,0.15523 0.437445,0.28223 0.6985,0.381 0.261056,0.0917 0.525639,0.17287 0.79375,0.24342 0.275167,0.0635 0.543278,0.12351 0.804334,0.17992 0.261055,0.0565 0.493889,0.12349 0.6985,0.20108 0.204611,0.0776 0.366888,0.17992 0.486833,0.30692 0.127,0.11994 0.1905,0.28222 0.1905,0.48683 0,0.14817 -0.02822,0.27164 -0.08467,0.37042 -0.04939,0.0988 -0.119942,0.17991 -0.211666,0.24341 -0.09172,0.0565 -0.194028,0.0988 -0.306917,0.127 -0.112889,0.0282 -0.128126,0.0458 -0.248071,0.0529 v 1.38642 c 0.09878,-0.007 0.08227,-0.0141 0.152821,-0.0212 0.07761,-0.007 0.148167,-0.0177 0.211667,-0.0318 0.07056,-0.007 0.141111,-0.0212 0.211666,-0.0423 0.07056,-0.0141 0.155223,-0.0353 0.254,-0.0635 0.232833,-0.0635 0.455083,-0.15878 0.66675,-0.28575 0.211667,-0.13406 0.395111,-0.28928 0.550334,-0.46567 0.155222,-0.18345 0.278694,-0.38806 0.370416,-0.61383 0.09172,-0.22578 0.137584,-0.46567 0.137584,-0.71967 z m -3.561929,2.26483 -0.01058,-1.397 c -0.232833,-0.0211 -0.315099,-0.0529 -0.449154,-0.0952 -0.127,-0.0423 -0.225778,-0.10936 -0.296333,-0.20108 -0.07056,-0.0917 -0.127001,-0.21166 -0.169334,-0.35983 -0.04233,-0.14817 -0.09172,-0.33867 -0.148166,-0.5715 l -1.661584,0.0847 c 0.02117,0.76906 0.208139,1.3582 0.560917,1.76742 0.352778,0.40922 0.896056,0.65264 1.629833,0.73025 0.112889,0.0141 0.222251,0.0212 0.328084,0.0212 l 0.216321,0.0212 z"
         style="font-style:normal;font-variant:normal;font-weight:normal;font-stretch:normal;line-height:10.15999985px;font-family:Stencilia-A;-inkscape-font-specification:Stencilia-A;text-align:center;text-anchor:middle;fill:#000000;fill-opacity:1;stroke:#000000;stroke-width:0.26458332;stroke-opacity:1"
         id="path1511"
         inkscape:connector-curvature="0"
         sodipodi:nodetypes="cccsccccccccccccccccscccccscscscccccccsccscccccccccccccccsccscccc" />
      <path
         d="m 30.213088,113.96881 v -7.40833 h -1.292219 v 7.40833 z m -2.243667,-4.07458 v -3.33375 h -0.127 c -0.246944,0.94545 -0.497416,1.88384 -0.751416,2.81517 -0.246945,0.92427 -0.462139,1.86619 -0.645584,2.82574 -0.204611,-0.95955 -0.433916,-1.90147 -0.687916,-2.82574 -0.254,-0.93133 -0.508,-1.86972 -0.762,-2.81517 h -0.07408 v 3.39725 c 0,0.0282 0.01058,0.0846 0.03175,0.16933 0.02117,0.0776 0.04586,0.16228 0.07408,0.254 0.02822,0.0847 0.05291,0.16933 0.07408,0.254 0.02822,0.0847 0.04586,0.14817 0.05292,0.1905 l 0.455083,3.14325 h 1.672167 l 0.455083,-3.20675 c 0.0071,-0.0423 0.02116,-0.10583 0.04233,-0.1905 0.02822,-0.0847 0.05644,-0.16933 0.08467,-0.254 0.02822,-0.0917 0.05291,-0.17639 0.07408,-0.254 0.02117,-0.0847 0.03175,-0.14111 0.03175,-0.16933 z m -3.938274,4.07458 v -7.40833 h -1.353392 v 7.40833 z"
         style="font-style:normal;font-variant:normal;font-weight:normal;font-stretch:normal;line-height:10.15999985px;font-family:Stencilia-A;-inkscape-font-specification:Stencilia-A;text-align:center;text-anchor:middle;fill:#000000;fill-opacity:1;stroke:#000000;stroke-width:0.26458332;stroke-opacity:1"
         id="path1513"
         inkscape:connector-curvature="0"
         sodipodi:nodetypes="cccccccccccccsccccccccccccccccc" />
      <path
         d="m 38.305707,113.96881 -2.6035,-7.40833 h -1.905 l -2.550583,7.40833 h 1.48563 l 1.502872,-4.65311 0.505756,-1.12539 0.589229,1.43934 c -0.01241,-1.6e-4 0.313972,0.93485 0.455083,1.40758 l -0.673731,0.0106 -0.402167,1.3335 h 1.499231 l 0.486834,1.5875 z"
         style="font-style:normal;font-variant:normal;font-weight:normal;font-stretch:normal;line-height:10.15999985px;font-family:Stencilia-A;-inkscape-font-specification:Stencilia-A;text-align:center;text-anchor:middle;fill:#000000;fill-opacity:1;stroke:#000000;stroke-width:0.26458332;stroke-opacity:1"
         id="path1515"
         inkscape:connector-curvature="0"
         sodipodi:nodetypes="cccccccccccccc" />
      <path
         d="m 43.408203,107.93631 v -1.38641 h -1.61925 v 1.38641 z m -4.582583,0.0106 v -1.397 h -1.513417 v 1.397 z m 2.168308,6.02191 v -7.41891 h -1.379213 v 7.41891 z"
         style="font-style:normal;font-variant:normal;font-weight:normal;font-stretch:normal;line-height:10.15999985px;font-family:Stencilia-A;-inkscape-font-specification:Stencilia-A;text-align:center;text-anchor:middle;fill:#000000;fill-opacity:1;stroke:#000000;stroke-width:0.26458332;stroke-opacity:1"
         id="path1517"
         inkscape:connector-curvature="0"
         sodipodi:nodetypes="ccccccccccccccc" />
      <path
         d="m 50.087261,107.93631 v -1.38641 h -1.61925 v 1.38641 z m -4.582583,0.0106 v -1.397 h -1.513417 v 1.397 z m 2.193603,6.02191 v -7.41891 h -1.303329 v 7.41891 z"
         style="font-style:normal;font-variant:normal;font-weight:normal;font-stretch:normal;line-height:10.15999985px;font-family:Stencilia-A;-inkscape-font-specification:Stencilia-A;text-align:center;text-anchor:middle;fill:#000000;fill-opacity:1;stroke:#000000;stroke-width:0.26458332;stroke-opacity:1"
         id="path1519"
         inkscape:connector-curvature="0"
         sodipodi:nodetypes="ccccccccccccccc" />
      <path
         d="m 56.419901,107.92573 v -1.37583 h -2.931583 v 1.37583 z m -0.275167,2.80458 v -1.3335 h -2.656416 v 1.3335 z m 0.34925,3.2385 v -1.37583 h -3.005666 v 1.37583 z m -4.048236,0 v -7.41891 h -1.423347 v 7.41891 z"
         style="font-style:normal;font-variant:normal;font-weight:normal;font-stretch:normal;line-height:10.15999985px;font-family:Stencilia-A;-inkscape-font-specification:Stencilia-A;text-align:center;text-anchor:middle;fill:#000000;fill-opacity:1;stroke:#000000;stroke-width:0.26458332;stroke-opacity:1"
         id="path1521"
         inkscape:connector-curvature="0"
         sodipodi:nodetypes="cccccccccccccccccccc" />
      <path
         d="m 63.622852,113.96881 c -0.119944,-0.19755 -0.222249,-0.39158 -0.306916,-0.58208 -0.07761,-0.19756 -0.137584,-0.41276 -0.179917,-0.64559 -0.03528,-0.18344 -0.06703,-0.38805 -0.09525,-0.61383 -0.02822,-0.22578 -0.07408,-0.44803 -0.137583,-0.66675 -0.05645,-0.21872 -0.141113,-0.41628 -0.254,-0.59267 -0.112889,-0.17639 -0.271639,-0.30691 -0.47625,-0.39158 -0.03528,-0.0141 -0.07056,-0.0282 -0.105834,-0.0423 -0.03528,-0.0141 -0.07056,-0.0282 -0.105833,-0.0423 0.204611,0 0.388056,-0.0529 0.550333,-0.15875 0.162278,-0.11289 0.299861,-0.254 0.41275,-0.42333 0.119945,-0.16933 0.208139,-0.35278 0.264584,-0.55033 0.0635,-0.20461 0.09525,-0.39864 0.09525,-0.58208 0,-0.381 -0.04586,-0.6985 -0.137584,-0.9525 -0.09172,-0.254 -0.215194,-0.45861 -0.370416,-0.61384 -0.155223,-0.16227 -0.342195,-0.27869 -0.560917,-0.34925 -0.218722,-0.0776 -0.451555,-0.13052 -0.6985,-0.15875 -0.246945,-0.0353 -0.508,-0.0494 -0.783167,-0.0423 -0.275167,0 -0.550333,-0.004 -0.8255,-0.0106 v 1.40758 h 0.04233 c 0.127,0 0.254,-0.004 0.381,-0.0106 0.134055,-0.007 0.268111,-0.0106 0.402166,-0.0106 0.148167,0 0.278695,0.0106 0.391584,0.0317 0.119944,0.0141 0.218722,0.0494 0.296333,0.10584 0.07761,0.0565 0.134056,0.14466 0.169333,0.26458 0.04233,0.11289 0.0635,0.26811 0.0635,0.46567 0,0.24694 -0.01764,0.44449 -0.05292,0.59266 -0.02822,0.14111 -0.08467,0.25047 -0.169334,0.32808 -0.07761,0.0776 -0.183444,0.13053 -0.3175,0.15875 -0.127,0.0212 -0.289278,0.0318 -0.486833,0.0318 h -0.359833 c -0.112889,-0.007 -0.229306,-0.0106 -0.34925,-0.0106 l -0.02117,1.3335 h 0.1905 0.09525 c 0.02822,0 0.05997,0.004 0.09525,0.0106 0.03528,0.007 0.09878,0.0141 0.1905,0.0212 0.246945,0.0282 0.433917,0.0952 0.560917,0.20108 0.127,0.0988 0.218722,0.22225 0.275166,0.37042 0.05645,0.14817 0.09173,0.31397 0.105834,0.49742 0.02117,0.18344 0.04939,0.37041 0.08467,0.56091 0.03528,0.1905 0.08467,0.37395 0.148167,0.55034 0.0635,0.17639 0.137583,0.34925 0.22225,0.51858 z m -4.746736,0 v -7.41891 h -1.43393 v 7.41891 z"
         style="font-style:normal;font-variant:normal;font-weight:normal;font-stretch:normal;line-height:10.15999985px;font-family:Stencilia-A;-inkscape-font-specification:Stencilia-A;text-align:center;text-anchor:middle;fill:#000000;fill-opacity:1;stroke:#000000;stroke-width:0.26458332;stroke-opacity:1"
         id="path1523"
         inkscape:connector-curvature="0"
         sodipodi:nodetypes="cccsccccccccscccccccscscccscccsccccssccccscccccccc" />
    </g>
    <circle
       style="fill:none;fill-opacity:1;stroke:#000000;stroke-width:0.07124726;stroke-miterlimit:4;stroke-dasharray:none;stroke-opacity:1"
       id="path1526"
       cx="81.462776"
       cy="113.13631"
       r="20.411377" />
  </g>
</svg>
