<?xml version="1.0" encoding="UTF-8" standalone="no"?>
<!-- Created with Inkscape (http://www.inkscape.org/) -->

<svg
   xmlns:dc="http://purl.org/dc/elements/1.1/"
   xmlns:cc="http://creativecommons.org/ns#"
   xmlns:rdf="http://www.w3.org/1999/02/22-rdf-syntax-ns#"
   xmlns:svg="http://www.w3.org/2000/svg"
   xmlns="http://www.w3.org/2000/svg"
   xmlns:sodipodi="http://sodipodi.sourceforge.net/DTD/sodipodi-0.dtd"
   xmlns:inkscape="http://www.inkscape.org/namespaces/inkscape"
   width="210mm"
   height="297mm"
   viewBox="0 0 210 297"
   version="1.1"
   id="svg8"
   inkscape:version="0.92.4 (5da689c313, 2019-01-14)"
   sodipodi:docname="HowManyWereNotFilmed1-61.svg">
  <defs
     id="defs2" />
  <sodipodi:namedview
     id="base"
     pagecolor="#ffffff"
     bordercolor="#666666"
     borderopacity="1.0"
     inkscape:pageopacity="0.0"
     inkscape:pageshadow="2"
     inkscape:zoom="4.5603961"
     inkscape:cx="282.29827"
     inkscape:cy="681.22351"
     inkscape:document-units="mm"
     inkscape:current-layer="layer1"
     showgrid="false"
     inkscape:snap-global="true"
     inkscape:snap-object-midpoints="true"
     showguides="true"
     inkscape:guide-bbox="true"
     inkscape:window-width="1280"
     inkscape:window-height="687"
     inkscape:window-x="0"
     inkscape:window-y="1"
     inkscape:window-maximized="1">
    <sodipodi:guide
       position="81.462774,183.8637"
       orientation="1,0"
       id="guide864"
       inkscape:locked="false" />
    <sodipodi:guide
       position="81.462776,183.86369"
       orientation="0,1"
       id="guide866"
       inkscape:locked="false" />
  </sodipodi:namedview>
  <metadata
     id="metadata5">
    <rdf:RDF>
      <cc:Work
         rdf:about="">
        <dc:format>image/svg+xml</dc:format>
        <dc:type
           rdf:resource="http://purl.org/dc/dcmitype/StillImage" />
        <dc:title />
      </cc:Work>
    </rdf:RDF>
  </metadata>
  <g
     inkscape:label="Layer 1"
     inkscape:groupmode="layer"
     id="layer1">
    <circle
       style="fill:none;fill-opacity:1;stroke:#000000;stroke-width:0.07124726;stroke-miterlimit:4;stroke-dasharray:none;stroke-opacity:1"
       id="path1526"
       cx="81.462776"
       cy="113.13631"
       r="20.411377" />
    <text
       xml:space="preserve"
       style="font-style:normal;font-variant:normal;font-weight:normal;font-stretch:normal;font-size:10.58333301999999954px;line-height:45.50833130000000182px;font-family:Stencilia-A;-inkscape-font-specification:Stencilia-A;letter-spacing:0px;word-spacing:0px;fill:#000000;fill-opacity:1;stroke:none;stroke-width:0.26458332;"
       x="110.83896"
       y="134.2455"
       id="text1591"><tspan
         sodipodi:role="line"
         id="tspan1589"
         x="110.83896"
         y="159.78177"
         style="stroke-width:0.26458332;-inkscape-font-specification:Stencilia-A;font-family:Stencilia-A;font-weight:normal;font-style:normal;font-stretch:normal;font-variant:normal;" /></text>
    <text
       xml:space="preserve"
       style="font-style:normal;font-variant:normal;font-weight:normal;font-stretch:normal;font-size:10.58333302px;line-height:45.5083313px;font-family:Stencilia-A;-inkscape-font-specification:Stencilia-A;letter-spacing:0px;word-spacing:0px;fill:#000000;fill-opacity:1;stroke:none;stroke-width:0.26458332"
       x="36.326576"
       y="98.061928"
       id="text842"><tspan
         sodipodi:role="line"
         id="tspan840"
         x="36.326576"
         y="124.25103"
         style="stroke-width:0.26458332" /></text>
    <g
       aria-label="How many were NOT filmed"
       style="font-style:normal;font-variant:normal;font-weight:normal;font-stretch:normal;font-size:5.98792887000000018px;line-height:6.13762712000000032px;font-family:Stencilia-A;-inkscape-font-specification:Stencilia-A;text-align:center;letter-spacing:0px;word-spacing:0px;text-anchor:middle;fill:none;fill-opacity:1;stroke:#000000;stroke-width:0.10583333;stroke-opacity:1;stroke-miterlimit:4;stroke-dasharray:none"
       id="text846">
      <path
         d="m 70.03674,108.9639 v -4.19155 h -0.95208 v 1.59877 h -1.065852 v 0.78442 h 1.065852 v 1.80836 z m -2.467026,0 v -4.19155 h -0.952081 v 4.19155 z"
         style="line-height:6.13762712000000032px;text-align:center;text-anchor:middle;stroke-width:0.10583333;fill:none;stroke:#000000;stroke-opacity:1;stroke-miterlimit:4;stroke-dasharray:none"
         id="path868" />
      <path
         d="m 74.008328,107.32321 q 0,-0.73652 -0.359276,-1.17963 -0.359276,-0.44909 -1.083815,-0.49101 v 0.73053 q 0.197602,0.0359 0.299396,0.12575 0.101795,0.0838 0.143711,0.21556 0.0479,0.12575 0.05389,0.28742 0.006,0.15569 0.006,0.33533 0,0.15568 -0.01198,0.31736 -0.01198,0.16167 -0.05988,0.29939 -0.0479,0.13773 -0.149698,0.23353 -0.101795,0.0898 -0.281433,0.11377 v 0.74251 q 0.07784,-0.012 0.149698,-0.018 0.07185,-0.006 0.14371,-0.018 0.305385,-0.0599 0.52095,-0.21557 0.221554,-0.16167 0.359276,-0.38921 0.14371,-0.22754 0.20359,-0.50898 0.06587,-0.28143 0.06587,-0.58082 z m -1.892186,1.73649 v -0.7425 q -0.203589,-0.0479 -0.311372,-0.13772 -0.101795,-0.0898 -0.149698,-0.21557 -0.04192,-0.12574 -0.0479,-0.28143 0,-0.16167 0,-0.35329 0,-0.16167 0.01198,-0.31736 0.01198,-0.16167 0.05988,-0.29341 0.0479,-0.13173 0.149699,-0.21556 0.107782,-0.0898 0.28742,-0.11377 v -0.73652 q -0.359275,0.012 -0.63472,0.1497 -0.269457,0.13174 -0.449095,0.36526 -0.179638,0.22755 -0.269457,0.53293 -0.08982,0.30538 -0.08982,0.65867 0,0.2994 0.05389,0.58083 0.05988,0.27545 0.191613,0.50299 0.131735,0.22754 0.341312,0.38323 0.209578,0.15568 0.514962,0.20957 0.08383,0.012 0.167662,0.012 0.08982,0.006 0.17365,0.012 z"
         style="line-height:6.13762712000000032px;text-align:center;text-anchor:middle;stroke-width:0.10583333;fill:none;stroke:#000000;stroke-opacity:1;stroke-miterlimit:4;stroke-dasharray:none"
         id="path870" />
      <path
         d="m 78.999734,105.74838 h -0.946093 l -0.28742,1.32333 0.425143,1.61076 z m -1.101779,3.21552 -0.832322,-3.21552 h -0.802382 l -0.299397,1.28142 0.353288,1.40117 q 0.05988,-0.2455 0.101795,-0.4431 0.04192,-0.19761 0.07784,-0.38922 0.03593,-0.19161 0.07784,-0.38922 0.04192,-0.20359 0.09581,-0.44909 0.125746,0.55688 0.257481,1.10777 0.137722,0.5449 0.275445,1.10178 z m -1.796378,0 -0.820347,-3.22151 h -0.958068 l 0.940105,3.22151 z"
         style="line-height:6.13762712000000032px;text-align:center;text-anchor:middle;stroke-width:0.10583333;fill:none;stroke:#000000;stroke-opacity:1;stroke-miterlimit:4;stroke-dasharray:none"
         id="path872" />
      <path
         d="m 85.688999,108.9639 v -1.89818 q 0,-0.28143 -0.03593,-0.53292 -0.03593,-0.25149 -0.149698,-0.44311 -0.107783,-0.19161 -0.311372,-0.30538 -0.20359,-0.11377 -0.538914,-0.11377 -0.323348,0 -0.562865,0.14371 -0.23353,0.14371 -0.40718,0.40119 -0.119758,-0.26946 -0.281432,-0.40718 -0.155686,-0.14371 -0.449095,-0.14371 -0.131734,0 -0.263469,0.0659 -0.125746,0.0659 -0.197601,0.11975 -0.06587,0.0539 -0.07784,0.0659 h 0.006 v 0.6946 q 0.05988,-0.0419 0.131734,-0.0778 0.07784,-0.0359 0.149698,-0.0359 0.08383,0 0.125747,0.0539 0.0479,0.0539 0.06587,0.1497 0.01796,0.0898 0.01796,0.21557 0.006,0.12574 0.006,0.26945 v 1.77842 h 0.922141 v -1.83231 q 0,-0.11976 0.01796,-0.23353 0.02395,-0.11377 0.07784,-0.1976 0.05389,-0.0898 0.14371,-0.14371 0.08982,-0.0539 0.233529,-0.0539 0.131734,0 0.221553,0.0539 0.08982,0.0479 0.137723,0.13173 0.05389,0.0778 0.07185,0.18563 0.02395,0.10778 0.02395,0.22155 l 0.01198,1.86824 z m -3.724492,0 v -3.20953 h -0.922141 v 3.20953 z"
         style="line-height:6.13762712000000032px;text-align:center;text-anchor:middle;stroke-width:0.10583333;fill:none;stroke:#000000;stroke-opacity:1;stroke-miterlimit:4;stroke-dasharray:none"
         id="path874" />
      <path
         d="m 89.328257,108.9639 q -0.07185,-0.22754 -0.09581,-0.46107 -0.01796,-0.23353 -0.01796,-0.46706 0,-0.22155 0.006,-0.43712 0.01198,-0.21557 0.01198,-0.43113 0,-0.38922 -0.07185,-0.67065 -0.06587,-0.28143 -0.233529,-0.46107 -0.161674,-0.17964 -0.437119,-0.26347 -0.269457,-0.0898 -0.670648,-0.0898 v -0.006 q -0.209578,0 -0.431131,0.0479 -0.215566,0.0419 -0.407179,0.14371 -0.185626,0.10179 -0.323348,0.26347 -0.131735,0.16167 -0.179638,0.3952 -0.01198,0.0659 -0.01796,0.13174 -0.006,0.0659 -0.01796,0.13173 h 0.850286 q 0.006,-0.20958 0.161674,-0.30538 0.155686,-0.1018 0.3473,-0.1018 0.227541,0 0.365264,0.0898 0.14371,0.0898 0.14371,0.34131 v 1.67063 q 0,0.25748 0.05988,0.47904 z m -1.407163,-0.012 q -0.02994,-0.16766 -0.02994,-0.30538 0,-0.0599 0,-0.1497 0.006,-0.0898 0.006,-0.1497 0,-0.0599 0,-0.0659 0,0 -0.05988,0.0299 -0.05988,0.0299 -0.23353,0.0359 -0.14371,0 -0.281432,-0.0838 -0.131735,-0.0838 -0.131735,-0.24551 0,-0.14969 0.06587,-0.22754 0.06587,-0.0838 0.161675,-0.12574 0.101794,-0.0419 0.215565,-0.0539 0.119759,-0.018 0.227541,-0.0359 v -0.62873 q -0.05988,0.012 -0.07784,0.012 -0.01198,0 -0.01796,0 -0.006,0 -0.02395,0.006 -0.01198,0 -0.07185,0.012 -0.251493,0.0479 -0.502986,0.10179 -0.251493,0.0479 -0.449095,0.15569 -0.197602,0.10778 -0.323348,0.29939 -0.125747,0.18563 -0.125747,0.50898 0,0.23951 0.08383,0.43113 0.08982,0.18562 0.239517,0.32335 0.149699,0.13173 0.353288,0.20359 0.20359,0.0718 0.431131,0.0718 0.113771,0 0.17365,0 0.05988,0.006 0.107783,-0.006 0.05389,-0.006 0.107782,-0.0359 0.05389,-0.0239 0.155687,-0.0778 z"
         style="line-height:6.13762712000000032px;text-align:center;text-anchor:middle;stroke-width:0.10583333;fill:none;stroke:#000000;stroke-opacity:1;stroke-miterlimit:4;stroke-dasharray:none"
         id="path876" />
      <path
         d="m 92.865625,108.9639 v -1.97602 q 0,-0.23952 -0.05988,-0.46706 -0.05389,-0.23353 -0.179638,-0.41316 -0.119758,-0.18563 -0.311372,-0.29341 -0.191614,-0.11377 -0.467059,-0.11377 -0.161674,0 -0.281432,0.0539 -0.119759,0.0539 -0.17365,0.10179 -0.0479,0.0479 -0.05389,0.0539 h -0.006 v 0.72454 q 0.006,-0.006 0.05988,-0.0419 0.05389,-0.0359 0.119758,-0.0778 0.06587,-0.0419 0.07784,-0.0419 0.119759,0 0.185626,0.0479 0.07185,0.0479 0.107783,0.12575 0.03593,0.0778 0.04192,0.17964 0.01198,0.10179 0.01198,0.20957 v 1.92812 z m -1.999968,0 v -3.20953 h -0.922141 v 3.20953 z"
         style="line-height:6.13762712000000032px;text-align:center;text-anchor:middle;stroke-width:0.10583333;fill:none;stroke:#000000;stroke-opacity:1;stroke-miterlimit:4;stroke-dasharray:none"
         id="path878" />
      <path
         d="m 96.418152,105.75437 h -0.976033 l -0.353287,1.44309 0.389215,1.3892 z m -1.149683,3.40114 -0.946092,-3.40114 h -1.005972 q 0.04192,0.12574 0.137722,0.37724 0.101795,0.25149 0.215565,0.56286 0.119759,0.30539 0.245506,0.6467 0.125746,0.33532 0.227541,0.63472 0.107783,0.29341 0.17365,0.51496 0.06587,0.22155 0.06587,0.30539 0.006,0.26346 -0.131734,0.34131 -0.137723,0.0838 -0.371252,0.0838 h -0.257481 v 0.72454 q 0.107783,0 0.215565,0 0.107783,0.006 0.215566,0.006 0.233529,0 0.431131,-0.0359 0.197601,-0.0299 0.353288,-0.11976 0.155686,-0.0838 0.263468,-0.23952 0.113771,-0.15568 0.167662,-0.40119 z"
         style="line-height:6.13762712000000032px;text-align:center;text-anchor:middle;stroke-width:0.10583333;fill:none;stroke:#000000;stroke-opacity:1;stroke-miterlimit:4;stroke-dasharray:none"
         id="path880" />
      <path
         d="m 71.930002,111.88601 h -0.946093 l -0.287421,1.32333 0.425143,1.61075 z m -1.101779,3.21551 -0.832322,-3.21551 h -0.802383 l -0.299396,1.28141 0.353288,1.40118 q 0.05988,-0.24551 0.101794,-0.44311 0.04192,-0.1976 0.07784,-0.38921 0.03593,-0.19162 0.07784,-0.38922 0.04192,-0.20359 0.09581,-0.44909 0.125747,0.55687 0.257481,1.10776 0.137723,0.54491 0.275445,1.10178 z m -1.796379,0 -0.820346,-3.2215 h -0.958069 l 0.940105,3.2215 z"
         style="line-height:6.13762712000000032px;text-align:center;text-anchor:middle;stroke-width:0.10583333;fill:none;stroke:#000000;stroke-opacity:1;stroke-miterlimit:4;stroke-dasharray:none"
         id="path882" />
      <path
         d="m 75.443606,113.6225 v 1e-5 c 0,0 -0.03194,-0.48702 -0.09581,-0.70658 -0.06387,-0.22355 -0.161676,-0.41716 -0.293408,-0.58083 -0.127743,-0.16766 -0.291413,-0.29939 -0.491011,-0.3952 -0.199597,-0.0958 -0.435122,-0.14371 -0.706575,-0.14371 -0.251493,0 -0.477039,0.0459 -0.676636,0.13772 -0.199598,0.0878 -0.369256,0.20957 -0.508974,0.36526 -0.139719,0.15569 -0.247501,0.33932 -0.323348,0.55089 -0.07585,0.20759 -0.113771,0.43313 -0.113771,0.67664 0,0.2475 0.03593,0.47504 0.107783,0.68262 0.07585,0.20359 0.18363,0.37924 0.323348,0.52694 0.139719,0.14371 0.309377,0.25549 0.508974,0.33533 0.203589,0.0798 0.431131,0.11975 0.682624,0.11975 0.203589,0 0.381231,-0.02 0.532926,-0.0599 0.155686,-0.0399 0.293408,-0.0998 0.413167,-0.17963 0.12375,-0.0838 0.233529,-0.18962 0.329336,-0.31736 0.0998,-0.13174 0.191613,-0.20536 0.275444,-0.38499 l -0.922141,-0.0659 c -0.06786,0.11177 -0.149698,0.11553 -0.245505,0.17541 -0.09182,0.0599 -0.203589,0.0898 -0.335324,0.0898 -0.139718,0 -0.257481,-0.0279 -0.353288,-0.0838 -0.09581,-0.0559 -0.17365,-0.12772 -0.233529,-0.21557 -0.05988,-0.0918 -0.103791,-0.1956 -0.131734,-0.31137 -0.02395,-0.11976 -0.03593,-0.23952 -0.03593,-0.35927 0,-0.11577 0.01,-0.23153 0.02994,-0.3473 0.02395,-0.11577 0.06188,-0.21956 0.113771,-0.31138 0.05589,-0.0918 0.129738,-0.16566 0.221553,-0.22155 0.09181,-0.0599 0.205585,-0.0898 0.341312,-0.0898 0.187622,0 0.331332,0.0519 0.431131,0.15569 0.0998,0.0998 0.167662,0.23553 0.203589,0.40718 h -0.832322 c -0.01197,0.0559 -0.02395,0.11375 -0.03593,0.17365 -0.008,0.0559 -0.01198,0.11175 -0.01198,0.16766 0,0.0599 0.002,0.11975 0.006,0.17964 0.008,0.0559 0.01597,-0.026 0.02395,0.0299 z"
         style="line-height:6.13762712px;text-align:center;text-anchor:middle;fill:none;stroke:#000000;stroke-width:0.10583333;stroke-miterlimit:4;stroke-dasharray:none;stroke-opacity:1"
         id="path884"
         inkscape:connector-curvature="0"
         sodipodi:nodetypes="cccccscccscccsccccccscccscccsccccsccc" />
      <path
         d="m 77.905768,111.83212 q -0.0479,-0.006 -0.08982,-0.006 -0.04192,-0.006 -0.08982,-0.006 -0.131735,0 -0.251493,0.0539 -0.119759,0.0479 -0.185626,0.0958 -0.06587,0.0419 -0.07185,0.0479 l 0.006,0.006 v 0.80238 q 0.006,-0.006 0.06587,-0.0419 0.05988,-0.0419 0.17365,-0.0838 0.119758,-0.0479 0.239517,-0.0479 0.107783,0 0.197602,0.0239 z m -0.964057,3.2694 v -3.21551 h -0.928129 v 3.21551 z"
         style="line-height:6.13762712000000032px;text-align:center;text-anchor:middle;stroke-width:0.10583333;fill:none;stroke:#000000;stroke-opacity:1;stroke-miterlimit:4;stroke-dasharray:none"
         id="path886" />
      <path
         d="m 81.271834,113.62251 c 0,0 -0.03194,-0.48702 -0.09581,-0.70658 -0.06387,-0.22355 -0.161676,-0.41716 -0.293408,-0.58083 -0.127743,-0.16766 -0.291413,-0.29939 -0.491011,-0.3952 -0.199597,-0.0958 -0.435122,-0.14371 -0.706575,-0.14371 -0.251493,0 -0.477039,0.0459 -0.676636,0.13772 -0.199598,0.0878 -0.369256,0.20957 -0.508974,0.36526 -0.139719,0.15569 -0.247501,0.33932 -0.323348,0.55089 -0.07585,0.20759 -0.113771,0.43313 -0.113771,0.67664 0,0.2475 0.03593,0.47504 0.107783,0.68262 0.07585,0.20359 0.18363,0.37924 0.323348,0.52694 0.139719,0.14371 0.309377,0.25549 0.508974,0.33533 0.203589,0.0798 0.431131,0.11975 0.682624,0.11975 0.203589,0 0.381231,-0.02 0.532926,-0.0599 0.155686,-0.0399 0.293408,-0.0998 0.413167,-0.17963 0.12375,-0.0838 0.233529,-0.18962 0.329336,-0.31736 0.0998,-0.13174 0.191613,-0.15406 0.275444,-0.33369 l -0.922141,-0.0659 c -0.06786,0.11177 -0.149698,0.0642 -0.245505,0.12411 -0.09181,0.0599 -0.203589,0.0898 -0.335324,0.0898 -0.139718,0 -0.257481,-0.0279 -0.353288,-0.0838 -0.09581,-0.0559 -0.17365,-0.12772 -0.233529,-0.21557 -0.05988,-0.0918 -0.103791,-0.1956 -0.131734,-0.31137 -0.02395,-0.11976 -0.03593,-0.23952 -0.03593,-0.35927 0,-0.11577 0.01,-0.23153 0.02994,-0.3473 0.02395,-0.11577 0.06188,-0.21956 0.113771,-0.31138 0.05589,-0.0918 0.129738,-0.16566 0.221553,-0.22155 0.09181,-0.0599 0.205585,-0.0898 0.341312,-0.0898 0.187622,0 0.331332,0.0519 0.431131,0.15569 0.0998,0.0998 0.167662,0.23553 0.203589,0.40718 h -0.832322 c -0.01197,0.0559 -0.02395,0.11375 -0.03593,0.17365 -0.008,0.0559 -0.01198,0.11175 -0.01198,0.16766 0,0.0599 0.002,0.11975 0.006,0.17964 0.008,0.0559 0.01597,-0.026 0.02395,0.0299 0.600785,3e-5 1.201601,1e-5 1.802368,6e-5 z"
         style="line-height:6.13762712px;text-align:center;text-anchor:middle;fill:none;stroke:#000000;stroke-width:0.10583333;stroke-miterlimit:4;stroke-dasharray:none;stroke-opacity:1"
         id="path888"
         inkscape:connector-curvature="0"
         sodipodi:nodetypes="ccccscccscccsccccccscccscccsccccsccc" />
      <path
         d="m 86.94754,114.49076 v -3.58079 h -0.946093 l 0.04192,2.07183 z m 0.006,0.61076 -2.51493,-4.18556 h -0.886214 l 2.502955,4.18556 z m -2.473015,0 -0.04192,-2.08978 -0.898189,-1.51495 v 3.60473 z"
         style="line-height:6.13762712000000032px;text-align:center;text-anchor:middle;stroke-width:0.10583333;fill:none;stroke:#000000;stroke-opacity:1;stroke-miterlimit:4;stroke-dasharray:none"
         id="path890" />
      <path
         d="m 91.716084,112.98779 q 0,-0.95807 -0.443107,-1.52693 -0.443107,-0.57484 -1.401176,-0.65867 v 0.80238 q 0.299397,0.0299 0.467059,0.16168 0.17365,0.12574 0.257481,0.32335 0.08982,0.1976 0.107783,0.4431 0.02395,0.24551 0.02395,0.50898 0,0.27544 -0.02994,0.497 -0.02994,0.22155 -0.119759,0.3952 -0.08982,0.16766 -0.257481,0.28143 -0.167662,0.11377 -0.449095,0.16766 v 0.7964 h 0.107783 q 0.449095,0 0.772443,-0.18563 0.329336,-0.19161 0.538914,-0.497 0.215565,-0.31137 0.31736,-0.70058 0.107783,-0.39521 0.107783,-0.80837 z m -2.299365,1.3892 q -0.287421,-0.0599 -0.455083,-0.17964 -0.167662,-0.11976 -0.257481,-0.29341 -0.08982,-0.17964 -0.119758,-0.40718 -0.02395,-0.23353 -0.02395,-0.50897 0,-0.2515 0.02994,-0.48503 0.02994,-0.23353 0.119758,-0.41915 0.09581,-0.19162 0.263469,-0.31736 0.167662,-0.13174 0.443107,-0.16168 v -0.006 -0.7964 q -0.467059,0.012 -0.814358,0.18563 -0.3473,0.17365 -0.574842,0.46706 -0.227541,0.2934 -0.341312,0.68861 -0.11377,0.3952 -0.11377,0.8443 0,0.37724 0.07784,0.73651 0.08383,0.35329 0.257481,0.6467 0.17365,0.29341 0.449094,0.50298 0.275445,0.20359 0.664661,0.27545 0.09581,0.018 0.191613,0.018 0.09581,0.006 0.197602,0.006 z"
         style="line-height:6.13762712000000032px;text-align:center;text-anchor:middle;stroke-width:0.10583333;fill:none;stroke:#000000;stroke-opacity:1;stroke-miterlimit:4;stroke-dasharray:none"
         id="path892" />
      <path
         d="m 95.478562,111.68841 v -0.78442 h -0.916153 v 0.78442 z m -2.592773,0.006 v -0.7904 h -0.856274 v 0.7904 z m 1.341296,3.40713 v -4.19753 h -0.95208 v 4.19753 z"
         style="line-height:6.13762712000000032px;text-align:center;text-anchor:middle;stroke-width:0.10583333;fill:none;stroke:#000000;stroke-opacity:1;stroke-miterlimit:4;stroke-dasharray:none"
         id="path894" />
      <path
         d="m 74.425752,118.72422 v -0.6946 h -0.616757 v -0.0419 q 0,-0.15569 0.09581,-0.19761 0.09581,-0.0479 0.233529,-0.0479 0.07185,0 0.137723,0.006 0.07185,0 0.14371,0 v -0.70658 h -0.604781 q -0.263469,0 -0.443107,0.0599 -0.179638,0.0539 -0.28742,0.17365 -0.107783,0.11976 -0.155686,0.30539 -0.0479,0.18562 -0.0479,0.43712 l -0.437119,0.006 v 0.70059 h 0.431131 v 2.51493 h 0.934117 v -2.51493 z"
         style="line-height:6.13762712000000032px;text-align:center;text-anchor:middle;stroke-width:0.10583333;fill:none;stroke:#000000;stroke-opacity:1;stroke-miterlimit:4;stroke-dasharray:none"
         id="path896" />
      <path
         d="m 75.825251,117.86196 v -0.81436 h -0.910165 v 0.81436 z m 0,3.37719 v -2.71807 h -0.910165 v 2.71807 z"
         style="line-height:6.13762712px;text-align:center;text-anchor:middle;fill:none;stroke:#000000;stroke-width:0.10583333;stroke-miterlimit:4;stroke-dasharray:none;stroke-opacity:1"
         id="path898"
         inkscape:connector-curvature="0"
         sodipodi:nodetypes="cccccccccc" />
      <path
         d="m 77.456588,121.23915 v -4.19155 h -0.904177 v 4.19155 z"
         style="line-height:6.13762712000000032px;text-align:center;text-anchor:middle;stroke-width:0.10583333;fill:none;stroke:#000000;stroke-opacity:1;stroke-miterlimit:4;stroke-dasharray:none"
         id="path900" />
      <path
         d="m 82.864615,121.23915 v -1.89817 q 0,-0.28143 -0.03593,-0.53293 -0.03593,-0.25149 -0.149698,-0.4431 -0.107783,-0.19162 -0.311373,-0.30539 -0.203589,-0.11377 -0.538913,-0.11377 -0.323348,0 -0.562865,0.14371 -0.23353,0.14371 -0.40718,0.40119 -0.119758,-0.26945 -0.281432,-0.40718 -0.155686,-0.14371 -0.449095,-0.14371 -0.131734,0 -0.263469,0.0659 -0.125746,0.0659 -0.197601,0.11976 -0.06587,0.0539 -0.07784,0.0659 h 0.006 v 0.6946 q 0.05988,-0.0419 0.131735,-0.0779 0.07784,-0.0359 0.149698,-0.0359 0.08383,0 0.125747,0.0539 0.0479,0.0539 0.06587,0.14969 0.01796,0.0898 0.01796,0.21557 0.006,0.12575 0.006,0.26946 v 1.77841 h 0.922141 v -1.8323 q 0,-0.11976 0.01796,-0.23353 0.02395,-0.11377 0.07784,-0.19761 0.05389,-0.0898 0.143711,-0.14371 0.08982,-0.0539 0.233529,-0.0539 0.131734,0 0.221553,0.0539 0.08982,0.0479 0.137723,0.13174 0.05389,0.0778 0.07185,0.18562 0.02395,0.10779 0.02395,0.22156 l 0.01197,1.86823 z m -3.724492,0 v -3.20953 h -0.922141 v 3.20953 z"
         style="line-height:6.13762712000000032px;text-align:center;text-anchor:middle;stroke-width:0.10583333;fill:none;stroke:#000000;stroke-opacity:1;stroke-miterlimit:4;stroke-dasharray:none"
         id="path902" />
      <path
         d="m 86.647583,119.76013 v 0 c 0,0 -0.03194,-0.48702 -0.09581,-0.70657 -0.06387,-0.22355 -0.161676,-0.41716 -0.293409,-0.58083 -0.127742,-0.16766 -0.291412,-0.29939 -0.49101,-0.3952 -0.199597,-0.0958 -0.435123,-0.14372 -0.706576,-0.14372 -0.251493,0 -0.477038,0.0459 -0.676636,0.13773 -0.199597,0.0878 -0.369255,0.20957 -0.508973,0.36526 -0.139719,0.15569 -0.247502,0.33932 -0.323349,0.55089 -0.07585,0.20758 -0.11377,0.43313 -0.11377,0.67664 0,0.2475 0.03593,0.47504 0.107782,0.68262 0.07585,0.20359 0.18363,0.37923 0.323349,0.52694 0.139718,0.14371 0.309376,0.25548 0.508974,0.33532 0.203589,0.0798 0.43113,0.11976 0.682623,0.11976 0.20359,0 0.381232,-0.02 0.532926,-0.0599 0.155686,-0.0399 0.293408,-0.0998 0.413167,-0.17964 0.123751,-0.0838 0.233529,-0.18961 0.329336,-0.31736 0.0998,-0.13173 0.191614,-0.18483 0.275445,-0.36447 l -0.922141,-0.0659 c -0.06786,0.11177 -0.149698,0.095 -0.245505,0.15489 -0.09181,0.0599 -0.203589,0.0898 -0.335324,0.0898 -0.139719,0 -0.257481,-0.0279 -0.353288,-0.0838 -0.09581,-0.0559 -0.17365,-0.12772 -0.233529,-0.21557 -0.05988,-0.0918 -0.103792,-0.1956 -0.131735,-0.31137 -0.02395,-0.11976 -0.03593,-0.23952 -0.03593,-0.35928 0,-0.11577 0.01,-0.23153 0.02994,-0.3473 0.02395,-0.11577 0.06188,-0.21956 0.113771,-0.31137 0.05589,-0.0918 0.129738,-0.16566 0.221554,-0.22155 0.09181,-0.0599 0.205585,-0.0898 0.341311,-0.0898 0.187622,0 0.331332,0.0519 0.431131,0.15568 0.0998,0.0998 0.167663,0.23553 0.20359,0.40718 H 84.86318 c -0.01197,0.0559 -0.02395,0.11375 -0.03593,0.17365 -0.008,0.0559 -0.01198,0.11176 -0.01198,0.16767 0,0.0599 0.002,0.11974 0.006,0.17963 0.008,0.0559 0.01597,-0.026 0.02395,0.0299 z"
         style="line-height:6.13762712px;text-align:center;text-anchor:middle;fill:none;stroke:#000000;stroke-width:0.10583333;stroke-miterlimit:4;stroke-dasharray:none;stroke-opacity:1"
         id="path904"
         inkscape:connector-curvature="0"
         sodipodi:nodetypes="cscccscccscccsccccccssccscccsccccsccc" />
      <path
         d="m 90.223499,121.23316 v -4.20352 h -0.910165 v 4.20352 z m -1.35926,-0.65268 q 0,0 0.006,-0.006 0.006,-0.006 -0.01198,-0.012 -0.01796,-0.006 -0.08982,-0.006 -0.191614,0 -0.323348,-0.0838 -0.125746,-0.0838 -0.20359,-0.21557 -0.07784,-0.13173 -0.11377,-0.29341 -0.02994,-0.16167 -0.02994,-0.32335 0,-0.14969 0.03593,-0.31736 0.03593,-0.16766 0.11377,-0.30538 0.07784,-0.14371 0.20359,-0.23353 0.131734,-0.0898 0.31736,-0.0898 0.107783,0 0.101795,-0.018 -0.006,-0.0239 -0.006,-0.0239 v -0.68263 q 0,0 -0.06587,-0.012 -0.05988,-0.018 -0.215566,-0.018 -0.359275,0 -0.628732,0.1497 -0.263469,0.14371 -0.437119,0.38922 -0.17365,0.23951 -0.263469,0.5449 -0.08383,0.30538 -0.08383,0.62873 0,0.32335 0.08383,0.62873 0.08982,0.2994 0.263469,0.53293 0.179638,0.22754 0.443107,0.37125 0.269457,0.13772 0.622744,0.13772 0.17365,0 0.221554,-0.018 0.05389,-0.018 0.05389,-0.018 z"
         style="line-height:6.13762712000000032px;text-align:center;text-anchor:middle;stroke-width:0.10583333;fill:none;stroke:#000000;stroke-opacity:1;stroke-miterlimit:4;stroke-dasharray:none"
         id="path906" />
    </g>
  </g>
</svg>
