<?xml version="1.0" encoding="UTF-8" standalone="no"?>
<!-- Created with Inkscape (http://www.inkscape.org/) -->

<svg
   xmlns:dc="http://purl.org/dc/elements/1.1/"
   xmlns:cc="http://creativecommons.org/ns#"
   xmlns:rdf="http://www.w3.org/1999/02/22-rdf-syntax-ns#"
   xmlns:svg="http://www.w3.org/2000/svg"
   xmlns="http://www.w3.org/2000/svg"
   xmlns:sodipodi="http://sodipodi.sourceforge.net/DTD/sodipodi-0.dtd"
   xmlns:inkscape="http://www.inkscape.org/namespaces/inkscape"
   width="210mm"
   height="297mm"
   viewBox="0 0 210 297"
   version="1.1"
   id="svg8"
   inkscape:version="0.92.4 (5da689c313, 2019-01-14)"
   sodipodi:docname="ICANTBREATHE1-61.svg">
  <defs
     id="defs2" />
  <sodipodi:namedview
     id="base"
     pagecolor="#ffffff"
     bordercolor="#666666"
     borderopacity="1.0"
     inkscape:pageopacity="0.0"
     inkscape:pageshadow="2"
     inkscape:zoom="2.6162951"
     inkscape:cx="251.00314"
     inkscape:cy="690.33114"
     inkscape:document-units="mm"
     inkscape:current-layer="layer1"
     showgrid="false"
     inkscape:snap-global="true"
     inkscape:snap-object-midpoints="true"
     showguides="true"
     inkscape:guide-bbox="true"
     inkscape:window-width="1280"
     inkscape:window-height="687"
     inkscape:window-x="0"
     inkscape:window-y="1"
     inkscape:window-maximized="1">
    <sodipodi:guide
       position="81.462774,183.8637"
       orientation="1,0"
       id="guide864"
       inkscape:locked="false" />
    <sodipodi:guide
       position="81.462776,183.86369"
       orientation="0,1"
       id="guide866"
       inkscape:locked="false" />
  </sodipodi:namedview>
  <metadata
     id="metadata5">
    <rdf:RDF>
      <cc:Work
         rdf:about="">
        <dc:format>image/svg+xml</dc:format>
        <dc:type
           rdf:resource="http://purl.org/dc/dcmitype/StillImage" />
        <dc:title />
      </cc:Work>
    </rdf:RDF>
  </metadata>
  <g
     inkscape:label="Layer 1"
     inkscape:groupmode="layer"
     id="layer1">
    <circle
       style="fill:none;fill-opacity:1;stroke:#000000;stroke-width:0.07124726;stroke-miterlimit:4;stroke-dasharray:none;stroke-opacity:1"
       id="path1526"
       cx="81.462776"
       cy="113.13631"
       r="20.411377" />
    <text
       xml:space="preserve"
       style="font-style:normal;font-variant:normal;font-weight:normal;font-stretch:normal;font-size:10.58333301999999954px;line-height:45.50833130000000182px;font-family:Stencilia-A;-inkscape-font-specification:Stencilia-A;letter-spacing:0px;word-spacing:0px;fill:#000000;fill-opacity:1;stroke:none;stroke-width:0.26458332;"
       x="110.83896"
       y="134.2455"
       id="text1591"><tspan
         sodipodi:role="line"
         id="tspan1589"
         x="110.83896"
         y="159.78177"
         style="stroke-width:0.26458332;-inkscape-font-specification:Stencilia-A;font-family:Stencilia-A;font-weight:normal;font-style:normal;font-stretch:normal;font-variant:normal;" /></text>
    <text
       xml:space="preserve"
       style="font-style:normal;font-variant:normal;font-weight:normal;font-stretch:normal;font-size:10.58333302px;line-height:45.5083313px;font-family:Stencilia-A;-inkscape-font-specification:Stencilia-A;letter-spacing:0px;word-spacing:0px;fill:#000000;fill-opacity:1;stroke:none;stroke-width:0.26458332"
       x="36.326576"
       y="98.061928"
       id="text842"><tspan
         sodipodi:role="line"
         id="tspan840"
         x="36.326576"
         y="124.25103"
         style="stroke-width:0.26458332" /></text>
    <g
       aria-label="I
CAN'T
BREATHE"
       style="font-style:normal;font-variant:normal;font-weight:normal;font-stretch:normal;font-size:5.98792887px;line-height:6.13762712px;font-family:Stencilia-A;-inkscape-font-specification:Stencilia-A;text-align:center;letter-spacing:0px;word-spacing:0px;text-anchor:middle;fill:none;fill-opacity:1;stroke:#000000;stroke-width:0.24949703;stroke-opacity:1"
       id="text846">
      <path
         d="m 82.041351,109.1488 v -4.19155 h -0.940105 v 4.19155 z"
         style="line-height:6.13762712px;text-align:center;text-anchor:middle;fill:none;stroke:#000000;stroke-width:0.24949703;stroke-opacity:1"
         id="path1584" />
      <path
         d="m 76.735859,112.3763 q -0.137722,-0.70059 -0.538913,-1.00597 -0.401192,-0.30539 -1.07184,-0.34132 v 0.77245 q 0.299397,0.0299 0.437119,0.19161 0.14371,0.15569 0.221553,0.45508 z m 0.06587,1.51494 -0.993996,-0.0659 q -0.04192,0.3473 -0.191614,0.53891 -0.149698,0.19161 -0.49101,0.22754 h 0.006 v 0.79041 q 0.371252,-0.0479 0.652684,-0.13772 0.281433,-0.0898 0.479035,-0.25749 0.203589,-0.17365 0.335324,-0.43711 0.131734,-0.26347 0.203589,-0.65868 z m -2.059847,1.48501 v -0.79041 q -0.269457,-0.006 -0.443107,-0.13173 -0.17365,-0.13174 -0.275445,-0.32934 -0.09581,-0.1976 -0.131734,-0.43712 -0.03593,-0.23951 -0.03593,-0.47304 0,-0.23952 0.02395,-0.48502 0.02994,-0.2515 0.125747,-0.4491 0.09581,-0.20359 0.263468,-0.33532 0.17365,-0.13174 0.461071,-0.14371 l 0.006,-0.006 v -0.77244 q -0.473046,0.012 -0.832322,0.17963 -0.353288,0.16767 -0.592805,0.45509 -0.233529,0.28742 -0.353288,0.68262 -0.119759,0.38922 -0.119759,0.85029 0,0.45508 0.119759,0.85028 0.125747,0.3952 0.365264,0.68861 0.239517,0.29341 0.592805,0.46706 0.359275,0.17365 0.826334,0.17964 z"
         style="line-height:6.13762712px;text-align:center;text-anchor:middle;fill:none;stroke:#000000;stroke-width:0.24949703;stroke-opacity:1"
         id="path1586" />
      <path
         d="m 80.847327,115.28643 -1.47303,-4.19155 H 78.29647 l -1.443091,4.19155 h 1.065851 l 0.784419,-2.6766 q 0.0479,-0.1497 0.07784,-0.29341 0.02994,-0.1497 0.05988,-0.2994 0.0479,0.41916 0.179638,0.81436 0.137722,0.3952 0.257481,0.79639 l -0.467059,0.006 -0.227541,0.75448 h 0.934117 l 0.275445,0.89819 z"
         style="line-height:6.13762712px;text-align:center;text-anchor:middle;fill:none;stroke:#000000;stroke-width:0.24949703;stroke-opacity:1"
         id="path1588" />
      <path
         d="m 84.839115,114.67566 v -3.58078 h -0.946093 l 0.04192,2.07182 z m 0.006,0.61077 -2.51493,-4.18556 h -0.886214 l 2.502954,4.18556 z m -2.473015,0 -0.04192,-2.08979 -0.89819,-1.51494 v 3.60473 z"
         style="line-height:6.13762712px;text-align:center;text-anchor:middle;fill:none;stroke:#000000;stroke-width:0.24949703;stroke-opacity:1"
         id="path1590" />
      <path
         d="m 86.518919,111.04698 -0.886214,-0.006 v 0.88621 h 0.437119 q -0.006,0.10779 -0.04192,0.21557 -0.03593,0.10778 -0.101794,0.20359 -0.06587,0.0958 -0.155687,0.16766 -0.08383,0.0659 -0.191613,0.10179 l 0.006,0.32335 q 0.305384,-0.0898 0.485022,-0.21556 0.179638,-0.13174 0.275445,-0.30539 0.101794,-0.17964 0.131734,-0.40718 0.03593,-0.23353 0.03593,-0.52693 0,-0.11377 0,-0.22156 0.006,-0.10778 0.006,-0.21556 z"
         style="line-height:6.13762712px;text-align:center;text-anchor:middle;fill:none;stroke:#000000;stroke-width:0.24949703;stroke-opacity:1"
         id="path1592" />
      <path
         d="m 90.394605,111.87331 v -0.78442 h -0.916153 v 0.78442 z m -2.592773,0.006 v -0.79041 h -0.856274 v 0.79041 z m 1.341296,3.40713 v -4.19754 h -0.95208 v 4.19754 z"
         style="line-height:6.13762712px;text-align:center;text-anchor:middle;fill:none;stroke:#000000;stroke-width:0.24949703;stroke-opacity:1"
         id="path1594" />
      <path
         d="m 72.062608,120.19054 q 0,-0.37724 -0.179638,-0.61675 -0.179638,-0.24551 -0.514962,-0.40119 0.281433,-0.16168 0.431131,-0.35329 0.149699,-0.1976 0.149699,-0.53892 0,-0.37125 -0.167662,-0.58082 -0.167662,-0.21557 -0.431131,-0.31736 -0.263469,-0.10779 -0.574842,-0.13174 -0.311372,-0.0299 -0.598792,-0.0299 -0.05389,0 -0.06587,0 -0.01198,0 -0.01198,0.006 0,0 -0.01198,0 -0.006,0 -0.05988,0 l 0.006,0.79041 q 0.06587,0 0.08383,0 0.01796,-0.006 0.02395,-0.006 0.01198,-0.006 0.02994,-0.006 0.01796,-0.006 0.08383,-0.006 0.119758,0 0.251493,0.012 0.137722,0.012 0.251493,0.0599 0.119758,0.0479 0.191613,0.13772 0.07784,0.0898 0.07784,0.23952 0,0.14371 -0.07784,0.22754 -0.07784,0.0838 -0.197601,0.13173 -0.113771,0.0419 -0.245505,0.0539 -0.131735,0.006 -0.239517,0.006 -0.06587,0 -0.08982,0 -0.01796,-0.006 -0.02994,-0.012 -0.006,-0.006 -0.02994,-0.006 -0.01796,-0.006 -0.08383,-0.006 v 0.75448 q 0.06587,0 0.08383,0 0.02395,-0.006 0.03593,-0.006 0.01198,-0.006 0.02994,-0.006 0.02395,-0.006 0.08982,-0.006 0.137723,0 0.281433,0.018 0.149698,0.012 0.269457,0.0659 0.119758,0.0539 0.197602,0.16167 0.07784,0.1018 0.07784,0.27545 0,0.18562 -0.08383,0.29939 -0.08383,0.10778 -0.209578,0.16766 -0.125746,0.0599 -0.281433,0.0778 -0.155686,0.012 -0.299396,0.012 -0.06587,0 -0.08383,0 -0.01198,-0.006 -0.01796,-0.006 0,-0.006 -0.01796,-0.006 -0.01198,-0.006 -0.07185,-0.006 v 0.78442 q 0.07784,0 0.107783,0 0.03593,0 0.05389,0 0.02395,0 0.05389,0 0.03593,0 0.11377,0 0.197602,0 0.401192,-0.012 0.203589,-0.012 0.395203,-0.0659 0.191614,-0.0539 0.359276,-0.14969 0.167662,-0.1018 0.299396,-0.26946 0.119759,-0.15569 0.179638,-0.3473 0.06587,-0.19161 0.06587,-0.38922 z m -2.479002,1.23352 v -4.19754 h -0.946093 v 4.19754 z"
         style="line-height:6.13762712px;text-align:center;text-anchor:middle;fill:none;stroke:#000000;stroke-width:0.24949703;stroke-opacity:1"
         id="path1596" />
      <path
         d="m 76.17959,121.42406 q -0.101795,-0.16766 -0.17365,-0.32934 -0.06587,-0.16766 -0.101795,-0.36526 -0.02994,-0.15569 -0.05389,-0.3473 -0.02395,-0.19162 -0.07784,-0.37724 -0.0479,-0.18563 -0.143711,-0.33533 -0.09581,-0.14969 -0.269456,-0.22155 -0.02994,-0.012 -0.05988,-0.0239 -0.02994,-0.012 -0.05988,-0.024 0.17365,0 0.311372,-0.0898 0.137723,-0.0958 0.233529,-0.23952 0.101795,-0.14371 0.149699,-0.31137 0.05389,-0.17365 0.05389,-0.32934 0,-0.32334 -0.07784,-0.53891 -0.07784,-0.21557 -0.209578,-0.3473 -0.131734,-0.13772 -0.31736,-0.1976 -0.185626,-0.0659 -0.395203,-0.0898 -0.209578,-0.0299 -0.443107,-0.0239 -0.233529,0 -0.467058,-0.006 v 0.79639 h 0.02395 q 0.107783,0 0.215566,-0.006 0.113771,-0.006 0.227541,-0.006 0.125747,0 0.221554,0.018 0.101794,0.012 0.167662,0.0599 0.06587,0.0479 0.09581,0.1497 0.03593,0.0958 0.03593,0.26347 0,0.20958 -0.02994,0.33532 -0.02395,0.11976 -0.09581,0.18563 -0.06587,0.0659 -0.179637,0.0898 -0.107783,0.018 -0.275445,0.018 -0.101795,0 -0.20359,0 -0.09581,-0.006 -0.197601,-0.006 l -0.01198,0.75448 q 0.07784,0 0.107783,0 0.03593,0 0.05389,0 0.02395,0 0.05389,0.006 0.02994,0.006 0.107783,0.012 0.209577,0.024 0.31736,0.11377 0.107783,0.0838 0.155686,0.20957 0.0479,0.12575 0.05988,0.28144 0.01796,0.15568 0.0479,0.31736 0.02994,0.16167 0.08383,0.31137 0.05389,0.1497 0.125747,0.29341 z m -2.556846,0 v -4.19754 h -0.940105 v 4.19754 z"
         style="line-height:6.13762712px;text-align:center;text-anchor:middle;fill:none;stroke:#000000;stroke-width:0.24949703;stroke-opacity:1"
         id="path1598" />
      <path
         d="m 79.765049,118.00495 v -0.77843 h -1.658656 v 0.77843 z m -0.155686,1.5868 v -0.75448 h -1.50297 v 0.75448 z m 0.197602,1.83231 v -0.77843 h -1.700572 v 0.77843 z m -2.161642,0 v -4.19754 h -0.934117 v 4.19754 z"
         style="line-height:6.13762712px;text-align:center;text-anchor:middle;fill:none;stroke:#000000;stroke-width:0.24949703;stroke-opacity:1"
         id="path1600" />
      <path
         d="m 84.09741,121.42406 -1.473031,-4.19155 h -1.077827 l -1.443091,4.19155 h 1.065851 l 0.784419,-2.67661 q 0.0479,-0.14969 0.07784,-0.29341 0.02994,-0.14969 0.05988,-0.29939 0.0479,0.41915 0.179638,0.81436 0.137723,0.3952 0.257481,0.79639 l -0.467058,0.006 -0.227542,0.75448 h 0.934117 l 0.275445,0.89819 z"
         style="line-height:6.13762712px;text-align:center;text-anchor:middle;fill:none;stroke:#000000;stroke-width:0.24949703;stroke-opacity:1"
         id="path1602" />
      <path
         d="m 86.986593,118.01094 v -0.78442 H 86.07044 v 0.78442 z m -2.592773,0.006 v -0.79041 h -0.856274 v 0.79041 z m 1.341296,3.40713 v -4.19754 h -0.95208 v 4.19754 z"
         style="line-height:6.13762712px;text-align:center;text-anchor:middle;fill:none;stroke:#000000;stroke-width:0.24949703;stroke-opacity:1"
         id="path1604" />
      <path
         d="m 90.8459,121.42406 v -4.19155 h -0.952081 v 1.59877 h -1.065851 v 0.78442 h 1.065851 v 1.80836 z m -2.467027,0 v -4.19155 h -0.952081 v 4.19155 z"
         style="line-height:6.13762712px;text-align:center;text-anchor:middle;fill:none;stroke:#000000;stroke-width:0.24949703;stroke-opacity:1"
         id="path1606" />
      <path
         d="m 94.536054,118.00495 v -0.77843 h -1.658656 v 0.77843 z m -0.155686,1.5868 v -0.75448 h -1.50297 v 0.75448 z m 0.197602,1.83231 v -0.77843 h -1.700572 v 0.77843 z m -2.161643,0 v -4.19754 H 91.48221 v 4.19754 z"
         style="line-height:6.13762712px;text-align:center;text-anchor:middle;fill:none;stroke:#000000;stroke-width:0.24949703;stroke-opacity:1"
         id="path1608" />
    </g>
  </g>
</svg>
