<?xml version="1.0" encoding="UTF-8" standalone="no"?>
<!-- Created with Inkscape (http://www.inkscape.org/) -->

<svg
   xmlns:dc="http://purl.org/dc/elements/1.1/"
   xmlns:cc="http://creativecommons.org/ns#"
   xmlns:rdf="http://www.w3.org/1999/02/22-rdf-syntax-ns#"
   xmlns:svg="http://www.w3.org/2000/svg"
   xmlns="http://www.w3.org/2000/svg"
   xmlns:sodipodi="http://sodipodi.sourceforge.net/DTD/sodipodi-0.dtd"
   xmlns:inkscape="http://www.inkscape.org/namespaces/inkscape"
   width="210mm"
   height="297mm"
   viewBox="0 0 210 297"
   version="1.1"
   id="svg8"
   inkscape:version="0.92.4 (5da689c313, 2019-01-14)"
   sodipodi:docname="NoJusticeNoPeace1-61.svg">
  <defs
     id="defs2" />
  <sodipodi:namedview
     id="base"
     pagecolor="#ffffff"
     bordercolor="#666666"
     borderopacity="1.0"
     inkscape:pageopacity="0.0"
     inkscape:pageshadow="2"
     inkscape:zoom="1.85"
     inkscape:cx="275.26392"
     inkscape:cy="685.95544"
     inkscape:document-units="mm"
     inkscape:current-layer="layer1"
     showgrid="false"
     inkscape:snap-global="true"
     inkscape:snap-object-midpoints="true"
     showguides="true"
     inkscape:guide-bbox="true"
     inkscape:window-width="1280"
     inkscape:window-height="687"
     inkscape:window-x="0"
     inkscape:window-y="1"
     inkscape:window-maximized="1" />
  <metadata
     id="metadata5">
    <rdf:RDF>
      <cc:Work
         rdf:about="">
        <dc:format>image/svg+xml</dc:format>
        <dc:type
           rdf:resource="http://purl.org/dc/dcmitype/StillImage" />
        <dc:title></dc:title>
      </cc:Work>
    </rdf:RDF>
  </metadata>
  <g
     inkscape:label="Layer 1"
     inkscape:groupmode="layer"
     id="layer1">
    <circle
       style="fill:none;fill-opacity:1;stroke:#000000;stroke-width:0.07124726;stroke-miterlimit:4;stroke-dasharray:none;stroke-opacity:1"
       id="path1526"
       cx="81.462776"
       cy="113.13631"
       r="20.411377" />
    <text
       xml:space="preserve"
       style="font-style:normal;font-variant:normal;font-weight:normal;font-stretch:normal;font-size:10.58333301999999954px;line-height:45.50833130000000182px;font-family:Stencilia-A;-inkscape-font-specification:Stencilia-A;letter-spacing:0px;word-spacing:0px;fill:#000000;fill-opacity:1;stroke:none;stroke-width:0.26458332;"
       x="110.83896"
       y="134.2455"
       id="text1591"><tspan
         sodipodi:role="line"
         id="tspan1589"
         x="110.83896"
         y="159.78177"
         style="stroke-width:0.26458332;-inkscape-font-specification:Stencilia-A;font-family:Stencilia-A;font-weight:normal;font-style:normal;font-stretch:normal;font-variant:normal;" /></text>
    <g
       aria-label="NO
JUSTICE
NO
PEACE"
       style="font-style:normal;font-variant:normal;font-weight:normal;font-stretch:normal;font-size:6.07610369px;line-height:5.24063969px;font-family:Stencilia-A;-inkscape-font-specification:Stencilia-A;text-align:center;letter-spacing:0px;word-spacing:0px;text-anchor:middle;fill:#000000;fill-opacity:1;stroke:none;stroke-width:0.15190259"
       id="text1595">
      <path
         d="m 80.843622,106.74545 v -3.63351 h -0.960025 l 0.04253,2.10233 z m 0.0061,0.61976 -2.551964,-4.24719 h -0.899263 l 2.539811,4.24719 z m -2.509431,0 -0.04253,-2.12056 -0.911415,-1.53725 v 3.65781 z"
         style="line-height:5.24063969px;text-align:center;text-anchor:middle;stroke-width:0.15190259"
         id="path1607" />
      <path
         d="m 85.682384,105.22035 q 0,-0.97218 -0.449632,-1.54941 -0.449631,-0.58331 -1.421808,-0.66837 v 0.8142 q 0.303805,0.0304 0.473936,0.16405 0.176207,0.1276 0.261273,0.32811 0.09114,0.20051 0.10937,0.44963 0.0243,0.24912 0.0243,0.51647 0,0.2795 -0.03038,0.50432 -0.03038,0.22481 -0.121522,0.40102 -0.09114,0.17013 -0.261272,0.28558 -0.170131,0.11544 -0.455708,0.17013 v 0.80812 h 0.10937 q 0.455708,0 0.783817,-0.18836 0.334186,-0.19443 0.54685,-0.50431 0.218739,-0.31596 0.322033,-0.71091 0.10937,-0.40102 0.10937,-0.82027 z M 83.34916,106.63 q -0.291653,-0.0608 -0.461784,-0.18228 -0.170131,-0.12152 -0.261272,-0.29773 -0.09114,-0.18228 -0.121522,-0.41317 -0.0243,-0.23697 -0.0243,-0.51647 0,-0.2552 0.03038,-0.49217 0.03038,-0.23697 0.121522,-0.42532 0.09722,-0.19444 0.267349,-0.32204 0.17013,-0.13367 0.449631,-0.16405 v -0.006 -0.80812 q -0.473936,0.0121 -0.82635,0.18836 -0.352414,0.17621 -0.583306,0.47393 -0.230892,0.29773 -0.346338,0.69876 -0.115446,0.40102 -0.115446,0.85673 0,0.38279 0.07899,0.74736 0.08507,0.35849 0.261272,0.65622 0.176207,0.29773 0.455708,0.51039 0.279501,0.20659 0.674447,0.2795 0.09722,0.0182 0.194436,0.0182 0.09722,0.006 0.200511,0.006 z"
         style="line-height:5.24063969px;text-align:center;text-anchor:middle;stroke-width:0.15190259"
         id="path1609" />
      <path
         d="m 72.043525,111.42709 v -3.07451 h -0.953948 v 3.0259 q 0,0.10329 0.0061,0.18836 0.0061,0.079 -0.0061,0.14582 -0.01215,0.0608 -0.05469,0.1033 -0.04253,0.0365 -0.145827,0.0547 v 0.80812 h 0.157979 q 0.03038,0 0.05469,-0.006 0.0243,-0.006 0.05468,-0.0122 0.492164,-0.11545 0.686599,-0.4071 0.200512,-0.29773 0.200512,-0.82635 z m -1.62232,1.25775 v -0.8142 q -0.121522,-0.0243 -0.182283,-0.0668 -0.06076,-0.0486 -0.08507,-0.11545 -0.0243,-0.0668 -0.0243,-0.15798 0.0061,-0.0911 0.0061,-0.20659 0,-0.0972 0,-0.18836 0.0061,-0.0972 0.01215,-0.19443 h -0.929644 v 0.32811 q 0,0.34026 0.05469,0.60153 0.06076,0.2552 0.200511,0.43748 0.13975,0.17621 0.370642,0.27343 0.230892,0.0972 0.57723,0.10329 z"
         style="line-height:5.24063969px;text-align:center;text-anchor:middle;stroke-width:0.15190259"
         id="path1611" />
      <path
         d="m 76.047772,110.98961 v -2.62488 h -0.9661 v 2.57019 q 0,0.18229 0.0061,0.35242 0.0061,0.16405 -0.03646,0.29773 -0.03646,0.12759 -0.145826,0.20658 -0.10937,0.079 -0.334186,0.0851 v 0.006 0.81419 q 0.455708,-0.0182 0.741285,-0.11544 0.285576,-0.1033 0.449631,-0.30381 0.164055,-0.20659 0.224816,-0.52254 0.06076,-0.31596 0.06076,-0.76559 z m -1.926125,1.71954 -0.0061,-0.8142 q -0.200511,-0.0243 -0.309881,-0.0911 -0.103294,-0.0668 -0.151903,-0.17014 -0.04861,-0.10329 -0.05468,-0.24912 -0.0061,-0.14582 -0.0061,-0.33418 v -2.68564 h -0.960024 v 2.69171 q 0,0.43141 0.07291,0.74129 0.07291,0.30988 0.243044,0.51039 0.170131,0.20051 0.455708,0.29773 0.285577,0.0972 0.71698,0.1033 z"
         style="line-height:5.24063969px;text-align:center;text-anchor:middle;stroke-width:0.15190259"
         id="path1613" />
      <path
         d="m 80.1837,109.60426 q -0.01823,-0.0851 -0.03038,-0.17621 -0.0061,-0.0911 -0.03038,-0.17621 -0.127598,-0.48001 -0.480012,-0.71698 -0.352414,-0.23697 -0.832426,-0.26735 l -0.08507,-0.006 v 0.77774 q 0.164055,0.0182 0.255197,0.0608 0.09114,0.0365 0.13975,0.10937 0.05468,0.0729 0.07291,0.18836 0.0243,0.11544 0.04253,0.2795 z m 0.06684,1.81675 q 0,-0.35241 -0.109369,-0.58938 -0.103294,-0.23697 -0.279501,-0.38887 -0.176207,-0.15798 -0.401023,-0.24305 -0.224816,-0.0911 -0.461784,-0.14582 -0.230892,-0.0608 -0.455708,-0.0972 -0.224816,-0.0425 -0.401023,-0.10329 -0.176207,-0.0608 -0.285576,-0.15191 -0.10937,-0.0972 -0.10937,-0.26127 0,-0.1276 0.04253,-0.20659 0.04253,-0.0851 0.115446,-0.12759 0.07291,-0.0486 0.164055,-0.0608 0.09114,-0.0182 0.194436,-0.0182 v -0.76559 h -0.03646 q -0.309881,0 -0.57723,0.0729 -0.267349,0.0668 -0.461784,0.21874 -0.194435,0.1519 -0.303805,0.40102 -0.10937,0.24305 -0.10937,0.59546 0,0.31596 0.103294,0.52862 0.10937,0.20659 0.285577,0.34634 0.176207,0.13367 0.401023,0.21874 0.224815,0.079 0.455707,0.13975 0.236968,0.0547 0.461784,0.10329 0.224816,0.0486 0.401023,0.11545 0.176207,0.0668 0.279501,0.17621 0.10937,0.10329 0.10937,0.2795 0,0.1276 -0.04861,0.21266 -0.04253,0.0851 -0.121522,0.13975 -0.07899,0.0486 -0.176207,0.0729 -0.09722,0.0243 -0.200512,0.0304 v 0.79597 q 0.08507,-0.006 0.145827,-0.0122 0.06684,-0.006 0.121522,-0.0182 0.06076,-0.006 0.121522,-0.0243 0.06076,-0.0122 0.145827,-0.0365 0.200511,-0.0547 0.382794,-0.16405 0.182283,-0.11545 0.315957,-0.26735 0.133675,-0.15798 0.212664,-0.35241 0.07899,-0.19444 0.07899,-0.41318 z m -1.986885,1.30029 -0.0061,-0.80205 q -0.200511,-0.0182 -0.315957,-0.0547 -0.10937,-0.0365 -0.170131,-0.11545 -0.06076,-0.079 -0.09722,-0.20659 -0.03646,-0.12759 -0.08507,-0.32811 l -0.953948,0.0486 q 0.01823,0.6623 0.322033,1.01471 0.303805,0.35242 0.93572,0.41925 0.09722,0.0122 0.188359,0.0122 0.09114,0.006 0.182284,0.0122 z"
         style="line-height:5.24063969px;text-align:center;text-anchor:middle;stroke-width:0.15190259"
         id="path1615" />
      <path
         d="m 84.041267,109.14247 v -0.79597 h -0.929644 v 0.79597 z m -2.630953,0.006 v -0.80205 h -0.868883 v 0.80205 z m 1.361047,3.4573 V 108.3465 H 81.80526 v 4.25935 z"
         style="line-height:5.24063969px;text-align:center;text-anchor:middle;stroke-width:0.15190259"
         id="path1617" />
      <path
         d="m 85.50988,112.60585 v -4.25327 h -0.953949 v 4.25327 z"
         style="line-height:5.24063969px;text-align:center;text-anchor:middle;stroke-width:0.15190259"
         id="path1619" />
      <path
         d="m 90.071134,109.65286 q -0.13975,-0.7109 -0.546849,-1.02078 -0.407099,-0.30988 -1.087623,-0.34634 v 0.78382 q 0.303806,0.0304 0.443556,0.19443 0.145827,0.15798 0.224816,0.46179 z m 0.06684,1.53726 -1.008634,-0.0668 q -0.04253,0.35242 -0.194435,0.54685 -0.151903,0.19444 -0.498241,0.23089 h 0.0061 v 0.80205 q 0.376718,-0.0486 0.662295,-0.13975 0.285577,-0.0911 0.486088,-0.26127 0.206588,-0.17621 0.340262,-0.44356 0.133674,-0.26735 0.206588,-0.66837 z m -2.09018,1.50687 v -0.80204 q -0.273425,-0.006 -0.449632,-0.13368 -0.176207,-0.13367 -0.279501,-0.33418 -0.09722,-0.20051 -0.133674,-0.44356 -0.03646,-0.24304 -0.03646,-0.48001 0,-0.24304 0.0243,-0.49216 0.03038,-0.2552 0.127598,-0.45571 0.09722,-0.20659 0.267349,-0.34026 0.176207,-0.13368 0.46786,-0.14583 l 0.0061,-0.006 v -0.78381 q -0.480012,0.0122 -0.844579,0.18228 -0.35849,0.17013 -0.601534,0.46178 -0.236968,0.29166 -0.35849,0.69268 -0.121522,0.39495 -0.121522,0.86281 0,0.46178 0.121522,0.8628 0.127598,0.40102 0.370642,0.69875 0.243044,0.29773 0.601535,0.47394 0.364566,0.17621 0.838502,0.18228 z"
         style="line-height:5.24063969px;text-align:center;text-anchor:middle;stroke-width:0.15190259"
         id="path1621" />
      <path
         d="m 93.661163,109.1364 v -0.7899 h -1.68308 v 0.7899 z m -0.157978,1.61016 v -0.76559 h -1.525102 v 0.76559 z m 0.200511,1.85929 v -0.78989 h -1.725613 v 0.78989 z m -2.193473,0 V 108.3465 H 90.56235 v 4.25935 z"
         style="line-height:5.24063969px;text-align:center;text-anchor:middle;stroke-width:0.15190259"
         id="path1623" />
      <path
         d="m 80.843622,117.22673 v -3.63351 h -0.960025 l 0.04253,2.10233 z m 0.0061,0.61976 -2.551964,-4.2472 h -0.899263 l 2.539811,4.2472 z m -2.509431,0 -0.04253,-2.12056 -0.911415,-1.53725 v 3.65781 z"
         style="line-height:5.24063969px;text-align:center;text-anchor:middle;stroke-width:0.15190259"
         id="path1625" />
      <path
         d="m 85.682384,115.70163 q 0,-0.97218 -0.449632,-1.54941 -0.449631,-0.58331 -1.421808,-0.66837 v 0.8142 q 0.303805,0.0304 0.473936,0.16405 0.176207,0.1276 0.261273,0.32811 0.09114,0.20051 0.10937,0.44963 0.0243,0.24912 0.0243,0.51647 0,0.2795 -0.03038,0.50432 -0.03038,0.22481 -0.121522,0.40102 -0.09114,0.17013 -0.261272,0.28558 -0.170131,0.11544 -0.455708,0.17013 v 0.80812 h 0.10937 q 0.455708,0 0.783817,-0.18836 0.334186,-0.19443 0.54685,-0.50432 0.218739,-0.31595 0.322033,-0.7109 0.10937,-0.40102 0.10937,-0.82027 z m -2.333224,1.40965 q -0.291653,-0.0608 -0.461784,-0.18228 -0.170131,-0.12152 -0.261272,-0.29773 -0.09114,-0.18228 -0.121522,-0.41317 -0.0243,-0.23697 -0.0243,-0.51647 0,-0.2552 0.03038,-0.49217 0.03038,-0.23697 0.121522,-0.42533 0.09722,-0.19443 0.267349,-0.32203 0.17013,-0.13367 0.449631,-0.16405 v -0.006 -0.80812 q -0.473936,0.0121 -0.82635,0.18836 -0.352414,0.1762 -0.583306,0.47393 -0.230892,0.29773 -0.346338,0.69876 -0.115446,0.40102 -0.115446,0.85673 0,0.38279 0.07899,0.74736 0.08507,0.35849 0.261272,0.65622 0.176207,0.29773 0.455708,0.51039 0.279501,0.20659 0.674447,0.2795 0.09722,0.0182 0.194436,0.0182 0.09722,0.006 0.200511,0.006 z"
         style="line-height:5.24063969px;text-align:center;text-anchor:middle;stroke-width:0.15190259"
         id="path1627" />
      <path
         d="m 75.218716,120.22529 q 0,-0.36457 -0.06684,-0.62584 -0.06684,-0.26735 -0.212663,-0.43141 -0.145827,-0.17013 -0.382795,-0.24912 -0.236968,-0.0851 -0.57723,-0.0851 h -0.631915 v 0.77774 h 0.03646 q 0.194435,0 0.352414,0 0.164055,0 0.279501,0.0547 0.115446,0.0547 0.176207,0.19444 0.06684,0.13367 0.06684,0.40102 0,0.19444 -0.03646,0.30988 -0.03646,0.11545 -0.115446,0.17621 -0.07291,0.0608 -0.188359,0.079 -0.115446,0.0122 -0.267348,0.0122 h -0.303806 v 0.77167 h 0.480013 q 0.35849,0 0.619762,-0.0608 0.267349,-0.0668 0.43748,-0.22482 0.170131,-0.16405 0.24912,-0.4314 0.08507,-0.26735 0.08507,-0.66837 z m -2.333224,2.86184 v -4.25327 h -0.953948 v 4.25327 z"
         style="line-height:5.24063969px;text-align:center;text-anchor:middle;stroke-width:0.15190259"
         id="path1629" />
      <path
         d="m 78.880328,119.61768 v -0.7899 h -1.68308 v 0.7899 z m -0.157978,1.61016 v -0.76559 h -1.525102 v 0.76559 z m 0.200511,1.85929 v -0.78989 h -1.725613 v 0.78989 z m -2.193473,0 v -4.25935 h -0.947873 v 4.25935 z"
         style="line-height:5.24063969px;text-align:center;text-anchor:middle;stroke-width:0.15190259"
         id="path1631" />
      <path
         d="m 83.276484,123.08713 -1.494721,-4.25327 h -1.093699 l -1.464341,4.25327 h 1.081547 l 0.795969,-2.71602 q 0.04861,-0.1519 0.07899,-0.29773 0.03038,-0.1519 0.06076,-0.3038 0.04861,0.42533 0.182284,0.82635 0.13975,0.40102 0.261272,0.80812 l -0.473936,0.006 -0.230892,0.76559 h 0.947872 l 0.279501,0.91141 z"
         style="line-height:5.24063969px;text-align:center;text-anchor:middle;stroke-width:0.15190259"
         id="path1633" />
      <path
         d="m 87.43064,120.13414 q -0.13975,-0.7109 -0.546849,-1.02078 -0.407099,-0.30988 -1.087623,-0.34634 v 0.78382 q 0.303805,0.0304 0.443556,0.19443 0.145826,0.15798 0.224815,0.46179 z m 0.06684,1.53726 -1.008633,-0.0668 q -0.04253,0.35242 -0.194435,0.54685 -0.151903,0.19444 -0.498241,0.23089 h 0.0061 v 0.80205 q 0.376719,-0.0486 0.662295,-0.13975 0.285577,-0.0911 0.486089,-0.26127 0.206587,-0.17621 0.340262,-0.44356 0.133674,-0.26735 0.206587,-0.66837 z m -2.09018,1.50687 v -0.80204 q -0.273424,-0.006 -0.449631,-0.13368 -0.176207,-0.13367 -0.279501,-0.33418 -0.09722,-0.20051 -0.133674,-0.44356 -0.03646,-0.24304 -0.03646,-0.48001 0,-0.24304 0.0243,-0.49217 0.03038,-0.25519 0.127598,-0.4557 0.09722,-0.20659 0.267348,-0.34026 0.176207,-0.13368 0.46786,-0.14583 l 0.0061,-0.006 v -0.78381 q -0.480012,0.0122 -0.844578,0.18228 -0.35849,0.17013 -0.601534,0.46178 -0.236968,0.29166 -0.35849,0.69268 -0.121523,0.39494 -0.121523,0.8628 0,0.46179 0.121523,0.86281 0.127598,0.40102 0.370642,0.69875 0.243044,0.29773 0.601534,0.47394 0.364566,0.17621 0.838502,0.18228 z"
         style="line-height:5.24063969px;text-align:center;text-anchor:middle;stroke-width:0.15190259"
         id="path1635" />
      <path
         d="m 91.020669,119.61768 v -0.7899 h -1.683081 v 0.7899 z m -0.157979,1.61016 v -0.76559 h -1.525102 v 0.76559 z m 0.200512,1.85929 v -0.78989 h -1.725614 v 0.78989 z m -2.193474,0 v -4.25935 h -0.947872 v 4.25935 z"
         style="line-height:5.24063969px;text-align:center;text-anchor:middle;stroke-width:0.15190259"
         id="path1637" />
    </g>
  </g>
</svg>
