<?xml version="1.0" encoding="UTF-8" standalone="no"?>
<!-- Created with Inkscape (http://www.inkscape.org/) -->

<svg
   xmlns:dc="http://purl.org/dc/elements/1.1/"
   xmlns:cc="http://creativecommons.org/ns#"
   xmlns:rdf="http://www.w3.org/1999/02/22-rdf-syntax-ns#"
   xmlns:svg="http://www.w3.org/2000/svg"
   xmlns="http://www.w3.org/2000/svg"
   xmlns:sodipodi="http://sodipodi.sourceforge.net/DTD/sodipodi-0.dtd"
   xmlns:inkscape="http://www.inkscape.org/namespaces/inkscape"
   width="210mm"
   height="297mm"
   viewBox="0 0 210 297"
   version="1.1"
   id="svg8"
   inkscape:version="0.92.4 (5da689c313, 2019-01-14)"
   sodipodi:docname="StopAttackingPeople1-61.svg">
  <defs
     id="defs2" />
  <sodipodi:namedview
     id="base"
     pagecolor="#ffffff"
     bordercolor="#666666"
     borderopacity="1.0"
     inkscape:pageopacity="0.0"
     inkscape:pageshadow="2"
     inkscape:zoom="2.6162951"
     inkscape:cx="251.00314"
     inkscape:cy="690.33114"
     inkscape:document-units="mm"
     inkscape:current-layer="layer1"
     showgrid="false"
     inkscape:snap-global="true"
     inkscape:snap-object-midpoints="true"
     showguides="true"
     inkscape:guide-bbox="true"
     inkscape:window-width="1280"
     inkscape:window-height="687"
     inkscape:window-x="0"
     inkscape:window-y="1"
     inkscape:window-maximized="1">
    <sodipodi:guide
       position="81.462774,183.8637"
       orientation="1,0"
       id="guide864"
       inkscape:locked="false" />
    <sodipodi:guide
       position="81.462776,183.86369"
       orientation="0,1"
       id="guide866"
       inkscape:locked="false" />
  </sodipodi:namedview>
  <metadata
     id="metadata5">
    <rdf:RDF>
      <cc:Work
         rdf:about="">
        <dc:format>image/svg+xml</dc:format>
        <dc:type
           rdf:resource="http://purl.org/dc/dcmitype/StillImage" />
        <dc:title></dc:title>
      </cc:Work>
    </rdf:RDF>
  </metadata>
  <g
     inkscape:label="Layer 1"
     inkscape:groupmode="layer"
     id="layer1">
    <circle
       style="fill:none;fill-opacity:1;stroke:#000000;stroke-width:0.07124726;stroke-miterlimit:4;stroke-dasharray:none;stroke-opacity:1"
       id="path1526"
       cx="81.462776"
       cy="113.13631"
       r="20.411377" />
    <text
       xml:space="preserve"
       style="font-style:normal;font-variant:normal;font-weight:normal;font-stretch:normal;font-size:10.58333301999999954px;line-height:45.50833130000000182px;font-family:Stencilia-A;-inkscape-font-specification:Stencilia-A;letter-spacing:0px;word-spacing:0px;fill:#000000;fill-opacity:1;stroke:none;stroke-width:0.26458332;"
       x="110.83896"
       y="134.2455"
       id="text1591"><tspan
         sodipodi:role="line"
         id="tspan1589"
         x="110.83896"
         y="159.78177"
         style="stroke-width:0.26458332;-inkscape-font-specification:Stencilia-A;font-family:Stencilia-A;font-weight:normal;font-style:normal;font-stretch:normal;font-variant:normal;" /></text>
    <text
       xml:space="preserve"
       style="font-style:normal;font-variant:normal;font-weight:normal;font-stretch:normal;font-size:10.58333302px;line-height:45.5083313px;font-family:Stencilia-A;-inkscape-font-specification:Stencilia-A;letter-spacing:0px;word-spacing:0px;fill:#000000;fill-opacity:1;stroke:none;stroke-width:0.26458332"
       x="36.326576"
       y="98.061928"
       id="text842"><tspan
         sodipodi:role="line"
         id="tspan840"
         x="36.326576"
         y="124.25103"
         style="stroke-width:0.26458332" /></text>
    <g
       aria-label="STOP
ATTACKING
PEOPLE"
       style="font-style:normal;font-variant:normal;font-weight:normal;font-stretch:normal;font-size:5.98792887px;line-height:6.13762712px;font-family:Stencilia-A;-inkscape-font-specification:Stencilia-A;text-align:center;letter-spacing:0px;word-spacing:0px;text-anchor:middle;fill:none;fill-opacity:1;stroke:#000000;stroke-width:0.24949703;stroke-opacity:1"
       id="text846">
      <path
         d="m 77.254423,106.19077 q -0.01796,-0.0838 -0.02994,-0.17365 -0.006,-0.0898 -0.02994,-0.17365 -0.125747,-0.47305 -0.473046,-0.70658 -0.3473,-0.23353 -0.820347,-0.26347 l -0.08383,-0.006 v 0.76646 q 0.161674,0.018 0.251493,0.0599 0.08982,0.0359 0.137723,0.10778 0.05389,0.0719 0.07185,0.18563 0.02395,0.11377 0.04192,0.27544 z m 0.06587,1.79039 q 0,-0.3473 -0.107782,-0.58083 -0.101795,-0.23353 -0.275445,-0.38323 -0.17365,-0.15569 -0.395203,-0.23952 -0.221554,-0.0898 -0.455083,-0.14371 -0.227541,-0.0599 -0.449095,-0.0958 -0.221553,-0.0419 -0.395203,-0.1018 -0.17365,-0.0599 -0.281433,-0.1497 -0.107782,-0.0958 -0.107782,-0.25748 0,-0.12574 0.04192,-0.20359 0.04192,-0.0838 0.113771,-0.12574 0.07185,-0.0479 0.161674,-0.0599 0.08982,-0.018 0.191614,-0.018 v -0.75448 h -0.03593 q -0.305384,0 -0.568853,0.0719 -0.263469,0.0659 -0.455083,0.21557 -0.191613,0.14969 -0.299396,0.3952 -0.107783,0.23952 -0.107783,0.58682 0,0.31137 0.101795,0.52095 0.107783,0.20358 0.281433,0.34131 0.173649,0.13173 0.395203,0.21556 0.221553,0.0779 0.449095,0.13773 0.233529,0.0539 0.455082,0.10179 0.221553,0.0479 0.395203,0.11377 0.17365,0.0659 0.275445,0.17365 0.107783,0.1018 0.107783,0.27545 0,0.12574 -0.0479,0.20957 -0.04192,0.0838 -0.119758,0.13773 -0.07784,0.0479 -0.17365,0.0718 -0.09581,0.0239 -0.197602,0.0299 v 0.78442 q 0.08383,-0.006 0.143711,-0.012 0.06587,-0.006 0.119758,-0.018 0.05988,-0.006 0.119759,-0.0239 0.05988,-0.012 0.14371,-0.0359 0.197602,-0.0539 0.37724,-0.16167 0.179637,-0.11378 0.311372,-0.26347 0.131734,-0.15569 0.209577,-0.3473 0.07784,-0.19162 0.07784,-0.40718 z m -1.958052,1.28141 -0.006,-0.7904 q -0.197602,-0.018 -0.311373,-0.0539 -0.107782,-0.0359 -0.167662,-0.11377 -0.05988,-0.0778 -0.09581,-0.20359 -0.03593,-0.12575 -0.08383,-0.32335 l -0.940105,0.0479 q 0.01796,0.65269 0.31736,0.99999 0.299396,0.3473 0.922141,0.41316 0.09581,0.012 0.185626,0.012 0.08982,0.006 0.179638,0.012 z"
         style="line-height:6.13762712px;text-align:center;text-anchor:middle;fill:none;stroke:#000000;stroke-width:0.24949703;stroke-opacity:1"
         id="path1638" />
      <path
         d="m 81.056009,105.73568 v -0.78441 h -0.916153 v 0.78441 z m -2.592773,0.006 v -0.7904 h -0.856274 v 0.7904 z m 1.341296,3.40713 v -4.19753 h -0.952081 v 4.19753 z"
         style="line-height:6.13762712px;text-align:center;text-anchor:middle;fill:none;stroke:#000000;stroke-width:0.24949703;stroke-opacity:1"
         id="path1640" />
      <path
         d="m 85.515239,107.03506 q 0,-0.95806 -0.443107,-1.52692 -0.443107,-0.57484 -1.401175,-0.65867 v 0.80238 q 0.299396,0.0299 0.467058,0.16168 0.17365,0.12574 0.257481,0.32335 0.08982,0.1976 0.107783,0.4431 0.02395,0.24551 0.02395,0.50898 0,0.27544 -0.02994,0.49699 -0.02994,0.22156 -0.119759,0.39521 -0.08982,0.16766 -0.257481,0.28143 -0.167662,0.11377 -0.449094,0.16766 v 0.7964 h 0.107782 q 0.449095,0 0.772443,-0.18563 0.329336,-0.19161 0.538914,-0.497 0.215565,-0.31137 0.31736,-0.70058 0.107783,-0.39521 0.107783,-0.80838 z m -2.299365,1.3892 q -0.287421,-0.0599 -0.455083,-0.17963 -0.167662,-0.11976 -0.25748,-0.29341 -0.08982,-0.17964 -0.119759,-0.40718 -0.02395,-0.23353 -0.02395,-0.50898 0,-0.25149 0.02994,-0.48502 0.02994,-0.23353 0.119758,-0.41915 0.09581,-0.19162 0.263469,-0.31736 0.167662,-0.13174 0.443107,-0.16168 v -0.006 -0.7964 q -0.467058,0.012 -0.814358,0.18563 -0.3473,0.17365 -0.574841,0.46706 -0.227542,0.2934 -0.341312,0.68861 -0.113771,0.3952 -0.113771,0.84429 0,0.37724 0.07784,0.73652 0.08383,0.35329 0.257481,0.6467 0.17365,0.2934 0.449095,0.50298 0.275444,0.20359 0.66466,0.27545 0.09581,0.018 0.191613,0.018 0.09581,0.006 0.197602,0.006 z"
         style="line-height:6.13762712px;text-align:center;text-anchor:middle;fill:none;stroke:#000000;stroke-width:0.24949703;stroke-opacity:1"
         id="path1642" />
      <path
         d="m 89.313644,106.32849 q 0,-0.35928 -0.06587,-0.61676 -0.06587,-0.26347 -0.209578,-0.42514 -0.14371,-0.16766 -0.37724,-0.24551 -0.233529,-0.0838 -0.568853,-0.0838 h -0.622744 v 0.76646 h 0.03593 q 0.191614,0 0.3473,0 0.161674,0 0.275445,0.0539 0.11377,0.0539 0.17365,0.19161 0.06587,0.13174 0.06587,0.39521 0,0.19161 -0.03593,0.30538 -0.03593,0.11377 -0.11377,0.17365 -0.07185,0.0599 -0.185626,0.0778 -0.113771,0.012 -0.263469,0.012 h -0.299396 v 0.76047 h 0.473046 q 0.353288,0 0.610769,-0.0599 0.263469,-0.0659 0.431131,-0.22156 0.167662,-0.16167 0.245505,-0.42514 0.08383,-0.26347 0.08383,-0.65867 z m -2.299365,2.82031 v -4.19155 h -0.940105 v 4.19155 z"
         style="line-height:6.13762712px;text-align:center;text-anchor:middle;fill:none;stroke:#000000;stroke-width:0.24949703;stroke-opacity:1"
         id="path1644" />
      <path
         d="m 69.104197,115.28643 -1.47303,-4.19155 h -1.077828 l -1.44309,4.19155 H 66.1761 l 0.784419,-2.6766 q 0.0479,-0.1497 0.07784,-0.29341 0.02994,-0.1497 0.05988,-0.2994 0.0479,0.41916 0.179638,0.81436 0.137722,0.3952 0.257481,0.79639 l -0.467059,0.006 -0.227541,0.75448 h 0.934117 l 0.275445,0.89819 z"
         style="line-height:6.13762712px;text-align:center;text-anchor:middle;fill:none;stroke:#000000;stroke-width:0.24949703;stroke-opacity:1"
         id="path1646" />
      <path
         d="m 71.993381,111.87331 v -0.78442 h -0.916154 v 0.78442 z m -2.592774,0.006 v -0.79041 h -0.856273 v 0.79041 z m 1.341296,3.40713 v -4.19754 h -0.95208 v 4.19754 z"
         style="line-height:6.13762712px;text-align:center;text-anchor:middle;fill:none;stroke:#000000;stroke-width:0.24949703;stroke-opacity:1"
         id="path1648" />
      <path
         d="m 75.772315,111.87331 v -0.78442 h -0.916153 v 0.78442 z m -2.592773,0.006 v -0.79041 h -0.856274 v 0.79041 z m 1.341296,3.40713 v -4.19754 h -0.952081 v 4.19754 z"
         style="line-height:6.13762712px;text-align:center;text-anchor:middle;fill:none;stroke:#000000;stroke-width:0.24949703;stroke-opacity:1"
         id="path1650" />
      <path
         d="m 79.233622,115.28643 -1.47303,-4.19155 h -1.077828 l -1.44309,4.19155 h 1.065851 l 0.784419,-2.6766 q 0.0479,-0.1497 0.07784,-0.29341 0.02994,-0.1497 0.05988,-0.2994 0.0479,0.41916 0.179638,0.81436 0.137722,0.3952 0.257481,0.79639 l -0.467059,0.006 -0.227541,0.75448 h 0.934117 l 0.275445,0.89819 z"
         style="line-height:6.13762712px;text-align:center;text-anchor:middle;fill:none;stroke:#000000;stroke-width:0.24949703;stroke-opacity:1"
         id="path1652" />
      <path
         d="m 83.32609,112.3763 q -0.137723,-0.70059 -0.538914,-1.00597 -0.401191,-0.30539 -1.071839,-0.34132 v 0.77245 q 0.299396,0.0299 0.437119,0.19161 0.14371,0.15569 0.221553,0.45508 z m 0.06587,1.51494 -0.993996,-0.0659 q -0.04192,0.3473 -0.191614,0.53891 -0.149698,0.19161 -0.49101,0.22754 h 0.006 v 0.79041 q 0.371251,-0.0479 0.652684,-0.13772 0.281433,-0.0898 0.479034,-0.25749 0.20359,-0.17365 0.335324,-0.43711 0.131735,-0.26347 0.20359,-0.65868 z m -2.059848,1.48501 v -0.79041 q -0.269457,-0.006 -0.443106,-0.13173 -0.17365,-0.13174 -0.275445,-0.32934 -0.09581,-0.1976 -0.131735,-0.43712 -0.03593,-0.23951 -0.03593,-0.47304 0,-0.23952 0.02395,-0.48502 0.02994,-0.2515 0.125746,-0.4491 0.09581,-0.20359 0.263469,-0.33532 0.17365,-0.13174 0.46107,-0.14371 l 0.006,-0.006 v -0.77244 q -0.473046,0.012 -0.832322,0.17963 -0.353288,0.16767 -0.592805,0.45509 -0.233529,0.28742 -0.353288,0.68262 -0.119758,0.38922 -0.119758,0.85029 0,0.45508 0.119758,0.85028 0.125747,0.3952 0.365264,0.68861 0.239517,0.29341 0.592805,0.46706 0.359276,0.17365 0.826334,0.17964 z"
         style="line-height:6.13762712px;text-align:center;text-anchor:middle;fill:none;stroke:#000000;stroke-width:0.24949703;stroke-opacity:1"
         id="path1654" />
      <path
         d="m 87.552632,115.28643 -1.70656,-2.28739 1.610753,-1.91015 h -1.21555 l -1.023935,1.42513 v 1.0419 l 1.167646,1.73051 z m -2.790375,0 v -4.19155 h -0.940105 v 4.19155 z"
         style="line-height:6.13762712px;text-align:center;text-anchor:middle;fill:none;stroke:#000000;stroke-width:0.24949703;stroke-opacity:1"
         id="path1656" />
      <path
         d="m 89.062624,115.28643 v -4.19155 h -0.940105 v 4.19155 z"
         style="line-height:6.13762712px;text-align:center;text-anchor:middle;fill:none;stroke:#000000;stroke-width:0.24949703;stroke-opacity:1"
         id="path1658" />
      <path
         d="m 93.283921,114.67566 v -3.58078 h -0.946093 l 0.04192,2.07182 z m 0.006,0.61077 -2.51493,-4.18556 h -0.886213 l 2.502954,4.18556 z m -2.473014,0 -0.04192,-2.08979 -0.898189,-1.51494 v 3.60473 z"
         style="line-height:6.13762712px;text-align:center;text-anchor:middle;fill:none;stroke:#000000;stroke-width:0.24949703;stroke-opacity:1"
         id="path1660" />
      <path
         d="m 97.812948,112.41222 q -0.03593,-0.23352 -0.149699,-0.4431 -0.11377,-0.21557 -0.28742,-0.38922 -0.167662,-0.17365 -0.383228,-0.29939 -0.209577,-0.12575 -0.443106,-0.19761 -0.08383,-0.0239 -0.119759,-0.0359 -0.03593,-0.018 -0.06587,-0.0239 -0.02994,-0.012 -0.06587,-0.018 -0.03593,-0.006 -0.119759,-0.018 v 0.80238 q 0.323348,0.012 0.479034,0.18563 0.155686,0.16766 0.227542,0.49101 z m 0.01796,0.54491 H 96.24411 v 0.75448 h 0.742503 q -0.05389,0.20358 -0.11377,0.35328 -0.05389,0.1497 -0.137723,0.25748 -0.08383,0.1018 -0.215565,0.16767 -0.131735,0.0659 -0.341312,0.0958 v 0.78442 q 0.149698,-0.006 0.275445,-0.0539 0.125746,-0.0479 0.233529,-0.12575 0.107783,-0.0778 0.20359,-0.17963 0.09581,-0.10779 0.191613,-0.22755 l 0.0479,0.50299 h 0.66466 z m -2.095775,2.42511 v -0.7964 q -0.299396,-0.0539 -0.467058,-0.16766 -0.167662,-0.11976 -0.257481,-0.29341 -0.08383,-0.17365 -0.107783,-0.40119 -0.02395,-0.23353 -0.02395,-0.51496 0,-0.26347 0.02395,-0.50299 0.02395,-0.23951 0.113771,-0.42514 0.08982,-0.19161 0.257481,-0.31736 0.167662,-0.13173 0.455082,-0.17365 h 0.006 v -0.79041 q -0.02994,-0.006 -0.08982,-0.006 -0.14371,0 -0.28742,0.0359 -0.419155,0.0898 -0.700588,0.29341 -0.281433,0.20359 -0.455083,0.497 -0.167662,0.28742 -0.239517,0.65268 -0.07185,0.35928 -0.07185,0.77245 0,0.40718 0.08383,0.79639 0.08383,0.38922 0.269457,0.6946 0.191614,0.2994 0.496998,0.48502 0.311372,0.17964 0.766455,0.17964 0.05988,0 0.113771,-0.006 0.05988,-0.006 0.11377,-0.012 z"
         style="line-height:6.13762712px;text-align:center;text-anchor:middle;fill:none;stroke:#000000;stroke-width:0.24949703;stroke-opacity:1"
         id="path1662" />
      <path
         d="m 73.735673,118.60374 q 0,-0.35927 -0.06587,-0.61675 -0.06587,-0.26347 -0.209578,-0.42515 -0.14371,-0.16766 -0.377239,-0.2455 -0.23353,-0.0838 -0.568854,-0.0838 h -0.622744 v 0.76645 h 0.03593 q 0.191614,0 0.3473,0 0.161674,0 0.275445,0.0539 0.113771,0.0539 0.17365,0.19162 0.06587,0.13173 0.06587,0.3952 0,0.19161 -0.03593,0.30539 -0.03593,0.11377 -0.113771,0.17364 -0.07185,0.0599 -0.185626,0.0778 -0.113771,0.012 -0.263469,0.012 h -0.299396 v 0.76047 h 0.473046 q 0.353288,0 0.610769,-0.0599 0.263469,-0.0659 0.431131,-0.22155 0.167662,-0.16168 0.245505,-0.42514 0.08383,-0.26347 0.08383,-0.65868 z m -2.299365,2.82032 v -4.19155 h -0.940105 v 4.19155 z"
         style="line-height:6.13762712px;text-align:center;text-anchor:middle;fill:none;stroke:#000000;stroke-width:0.24949703;stroke-opacity:1"
         id="path1664" />
      <path
         d="m 77.344149,118.00495 v -0.77843 h -1.658657 v 0.77843 z m -0.155687,1.5868 v -0.75448 h -1.50297 v 0.75448 z m 0.197602,1.83231 v -0.77843 h -1.700572 v 0.77843 z m -2.161642,0 v -4.19754 h -0.934117 v 4.19754 z"
         style="line-height:6.13762712px;text-align:center;text-anchor:middle;fill:none;stroke:#000000;stroke-width:0.24949703;stroke-opacity:1"
         id="path1666" />
      <path
         d="m 81.873083,119.31032 q 0,-0.95807 -0.443106,-1.52692 -0.443107,-0.57484 -1.401176,-0.65868 v 0.80239 q 0.299397,0.0299 0.467059,0.16167 0.17365,0.12575 0.257481,0.32335 0.08982,0.1976 0.107782,0.44311 0.02395,0.2455 0.02395,0.50897 0,0.27544 -0.02994,0.497 -0.02994,0.22155 -0.119758,0.3952 -0.08982,0.16766 -0.257481,0.28143 -0.167662,0.11377 -0.449095,0.16767 v 0.79639 h 0.107783 q 0.449095,0 0.772443,-0.18563 0.329336,-0.19161 0.538913,-0.49699 0.215566,-0.31138 0.317361,-0.70059 0.107782,-0.3952 0.107782,-0.80837 z m -2.299364,1.3892 q -0.287421,-0.0599 -0.455083,-0.17964 -0.167662,-0.11976 -0.257481,-0.29341 -0.08982,-0.17964 -0.119759,-0.40718 -0.02395,-0.23353 -0.02395,-0.50897 0,-0.25149 0.02994,-0.48502 0.02994,-0.23353 0.119759,-0.41916 0.09581,-0.19161 0.263469,-0.31736 0.167662,-0.13173 0.443107,-0.16167 v -0.006 -0.7964 q -0.467059,0.012 -0.814359,0.18563 -0.3473,0.17365 -0.574841,0.46706 -0.227541,0.29341 -0.341312,0.68861 -0.113771,0.3952 -0.113771,0.8443 0,0.37724 0.07784,0.73651 0.08383,0.35329 0.25748,0.6467 0.17365,0.29341 0.449095,0.50299 0.275445,0.20359 0.66466,0.27544 0.09581,0.018 0.191614,0.018 0.09581,0.006 0.197602,0.006 z"
         style="line-height:6.13762712px;text-align:center;text-anchor:middle;fill:none;stroke:#000000;stroke-width:0.24949703;stroke-opacity:1"
         id="path1668" />
      <path
         d="m 85.676445,118.60374 q 0,-0.35927 -0.06587,-0.61675 -0.06587,-0.26347 -0.209578,-0.42515 -0.14371,-0.16766 -0.377239,-0.2455 -0.233529,-0.0838 -0.568854,-0.0838 h -0.622744 v 0.76645 h 0.03593 q 0.191614,0 0.3473,0 0.161674,0 0.275445,0.0539 0.113771,0.0539 0.17365,0.19162 0.06587,0.13173 0.06587,0.3952 0,0.19161 -0.03593,0.30539 -0.03593,0.11377 -0.113771,0.17364 -0.07185,0.0599 -0.185626,0.0778 -0.11377,0.012 -0.263469,0.012 h -0.299396 v 0.76047 h 0.473046 q 0.353288,0 0.610769,-0.0599 0.263469,-0.0659 0.431131,-0.22155 0.167662,-0.16168 0.245505,-0.42514 0.08383,-0.26347 0.08383,-0.65868 z m -2.299365,2.82032 v -4.19155 h -0.940105 v 4.19155 z"
         style="line-height:6.13762712px;text-align:center;text-anchor:middle;fill:none;stroke:#000000;stroke-width:0.24949703;stroke-opacity:1"
         id="path1670" />
      <path
         d="m 87.135254,121.42406 v -4.19754 h -0.952081 v 4.19754 z m 1.982004,0 v -0.78442 h -1.538897 v 0.78442 z"
         style="line-height:6.13762712px;text-align:center;text-anchor:middle;fill:none;stroke:#000000;stroke-width:0.24949703;stroke-opacity:1"
         id="path1672" />
      <path
         d="m 92.641436,118.00495 v -0.77843 H 90.98278 v 0.77843 z m -0.155686,1.5868 v -0.75448 h -1.50297 v 0.75448 z m 0.197602,1.83231 v -0.77843 H 90.98278 v 0.77843 z m -2.161643,0 v -4.19754 h -0.934117 v 4.19754 z"
         style="line-height:6.13762712px;text-align:center;text-anchor:middle;fill:none;stroke:#000000;stroke-width:0.24949703;stroke-opacity:1"
         id="path1674" />
    </g>
  </g>
</svg>
